
<!-- Generator: visioncortex VTracer 0.6.4 -->
<svg version="1.1" xmlns="http://www.w3.org/2000/svg" viewBox="0 0 1024 289" preserveAspectRatio="xMidYMid meet">
<path d="M0 0 C337.92 0 675.84 0 1024 0 C1024 95.37 1024 190.74 1024 289 C686.08 289 348.16 289 0 289 C0 193.63 0 98.26 0 0 Z " fill="#FCFCFA" transform="translate(0,0)"/>
<path d="M0 0 C1.202 -0.01 2.403 -0.019 3.641 -0.029 C5.591 -0.035 5.591 -0.035 7.581 -0.042 C8.93 -0.048 10.279 -0.054 11.628 -0.059 C14.456 -0.07 17.285 -0.076 20.114 -0.079 C23.728 -0.085 27.343 -0.109 30.957 -0.137 C33.745 -0.156 36.532 -0.161 39.319 -0.162 C41.297 -0.167 43.274 -0.186 45.252 -0.204 C46.463 -0.201 47.674 -0.198 48.922 -0.195 C49.983 -0.199 51.044 -0.203 52.138 -0.206 C57.615 0.461 61.63 2.983 65.155 7.161 C66.324 10.667 66.28 13.809 66.253 17.454 C66.251 18.513 66.251 18.513 66.248 19.594 C66.243 21.845 66.23 24.097 66.218 26.349 C66.213 27.877 66.208 29.405 66.204 30.933 C66.193 34.675 66.176 38.418 66.155 42.161 C65.576 42.468 64.998 42.774 64.402 43.09 C48.971 51.433 37.803 63.297 32.468 80.224 C30.558 87.042 27.807 97.466 31.155 104.161 C31.446 103.206 31.738 102.251 32.038 101.267 C37.498 83.837 45.975 69.879 61.155 59.161 C61.912 58.617 62.668 58.073 63.448 57.513 C79.012 47.241 98.042 45.743 116.155 46.161 C116.627 55.54 115.354 64.052 113.155 73.161 C112.9 74.256 112.645 75.35 112.382 76.478 C107.427 95.002 95.953 107.713 79.858 117.567 C69.369 123.34 57.076 126.07 45.155 125.161 C46.658 120.799 48.973 117.246 51.655 113.536 C52.095 112.924 52.535 112.311 52.988 111.68 C57.308 105.774 62.147 100.493 67.155 95.161 C68.307 93.833 69.454 92.501 70.593 91.161 C75.161 85.89 80.185 81.05 85.155 76.161 C83.255 77.07 81.361 77.989 79.468 78.911 C78.412 79.422 77.356 79.932 76.268 80.458 C73.231 82.12 70.797 83.935 68.155 86.161 C66.896 87.12 66.896 87.12 65.612 88.099 C48.299 101.602 35.635 121.37 32.382 143.282 C32.307 143.902 32.232 144.522 32.155 145.161 C32.458 144.546 32.761 143.931 33.073 143.298 C33.492 142.49 33.911 141.681 34.343 140.849 C34.749 140.048 35.155 139.248 35.573 138.423 C37.56 135.582 38.963 134.553 42.155 133.161 C45.225 132.621 48.297 132.426 51.405 132.224 C74.466 130.296 94.245 123.969 109.87 106.017 C115.992 98.366 120.373 90.173 124.155 81.161 C126.216 81.052 128.279 80.975 130.343 80.911 C131.491 80.865 132.64 80.818 133.823 80.771 C137.897 81.248 139.335 82.219 142.155 85.161 C144.672 89.442 145.532 92.567 145.543 97.514 C145.553 98.753 145.562 99.991 145.572 101.267 C145.566 102.605 145.56 103.944 145.553 105.282 C145.555 106.669 145.558 108.056 145.562 109.444 C145.567 112.344 145.56 115.245 145.546 118.146 C145.529 121.849 145.539 125.551 145.557 129.255 C145.568 132.117 145.564 134.98 145.556 137.843 C145.554 139.208 145.557 140.572 145.564 141.937 C145.617 155.262 145.617 155.262 142.155 161.161 C137.949 165.104 134.073 165.285 128.48 165.275 C127.807 165.275 127.134 165.275 126.44 165.275 C124.216 165.274 121.992 165.267 119.768 165.259 C118.226 165.257 116.683 165.256 115.14 165.255 C111.081 165.251 107.022 165.241 102.963 165.23 C98.821 165.22 94.678 165.215 90.536 165.21 C82.409 165.199 74.282 165.182 66.155 165.161 C66.165 166.419 66.165 166.419 66.175 167.702 C66.235 175.618 66.281 183.533 66.31 191.449 C66.326 195.518 66.347 199.587 66.381 203.656 C66.414 207.585 66.432 211.514 66.44 215.443 C66.445 216.94 66.456 218.437 66.472 219.933 C66.494 222.035 66.497 224.136 66.496 226.238 C66.506 228.03 66.506 228.03 66.516 229.858 C65.9 235.499 63.46 239.529 59.155 243.161 C55.92 244.239 53.53 244.308 50.126 244.338 C48.885 244.351 47.643 244.364 46.364 244.377 C45.006 244.385 43.649 244.393 42.292 244.399 C41.607 244.403 40.922 244.408 40.217 244.412 C36.592 244.433 32.967 244.447 29.342 244.456 C25.606 244.467 21.871 244.502 18.135 244.541 C15.255 244.568 12.375 244.576 9.495 244.58 C8.118 244.584 6.742 244.596 5.365 244.615 C-7.96 244.783 -7.96 244.783 -12.845 240.161 C-16.655 235.825 -16.969 232.234 -16.958 226.578 C-16.959 225.915 -16.959 225.251 -16.959 224.567 C-16.958 222.376 -16.95 220.185 -16.943 217.993 C-16.941 216.473 -16.939 214.953 -16.938 213.432 C-16.935 209.432 -16.925 205.433 -16.914 201.433 C-16.903 197.351 -16.899 193.269 -16.894 189.187 C-16.883 181.178 -16.866 173.17 -16.845 165.161 C-18.144 165.171 -18.144 165.171 -19.469 165.181 C-27.635 165.241 -35.8 165.287 -43.967 165.317 C-48.165 165.332 -52.363 165.353 -56.561 165.387 C-60.613 165.42 -64.665 165.438 -68.718 165.446 C-70.263 165.451 -71.808 165.462 -73.353 165.478 C-75.519 165.5 -77.685 165.503 -79.852 165.502 C-81.084 165.508 -82.316 165.515 -83.586 165.522 C-88.394 164.99 -90.746 163.255 -94.124 159.893 C-96.256 156.509 -96.357 154.43 -96.378 150.447 C-96.391 149.465 -96.391 149.465 -96.405 148.464 C-96.427 146.312 -96.42 144.161 -96.411 142.009 C-96.417 140.506 -96.423 139.003 -96.43 137.5 C-96.441 134.353 -96.436 131.207 -96.421 128.061 C-96.404 124.038 -96.428 120.016 -96.463 115.993 C-96.485 112.89 -96.483 109.787 -96.475 106.684 C-96.474 105.201 -96.481 103.719 -96.496 102.236 C-96.606 89.211 -96.606 89.211 -93.493 85.331 C-87.704 80.588 -83.568 80.034 -76.219 80.048 C-75.252 80.047 -75.252 80.047 -74.266 80.047 C-72.15 80.048 -70.035 80.056 -67.919 80.063 C-66.447 80.065 -64.974 80.067 -63.501 80.068 C-59.636 80.072 -55.772 80.081 -51.907 80.092 C-47.958 80.103 -44.01 80.107 -40.062 80.112 C-32.323 80.123 -24.584 80.14 -16.845 80.161 C-16.854 79.297 -16.863 78.434 -16.872 77.544 C-16.952 69.393 -17.013 61.243 -17.052 53.091 C-17.073 48.901 -17.101 44.711 -17.147 40.521 C-17.19 36.475 -17.214 32.429 -17.224 28.383 C-17.232 26.842 -17.246 25.3 -17.268 23.759 C-17.297 21.595 -17.301 19.432 -17.299 17.268 C-17.308 16.038 -17.317 14.808 -17.326 13.54 C-16.634 8.679 -14.435 5.559 -10.782 2.349 C-7.165 0.132 -4.146 0.027 0 0 Z " fill="#7AAA7D" transform="translate(223.844970703125,22.8388671875)"/>
<path d="M0 0 C5.563 4.046 10.449 9.061 11.75 16 C12.392 23.829 10.929 30.652 5.938 36.875 C1.518 41.521 -2.346 43.158 -8.75 43.375 C-14.342 43.223 -18.227 42.023 -22.25 38 C-22.58 45.92 -22.91 53.84 -23.25 62 C-25.56 62 -27.87 62 -30.25 62 C-30.25 41.54 -30.25 21.08 -30.25 0 C-28.27 0 -26.29 0 -24.25 0 C-24.25 1.65 -24.25 3.3 -24.25 5 C-23.779 4.651 -23.309 4.301 -22.824 3.941 C-22.202 3.486 -21.579 3.031 -20.938 2.562 C-20.323 2.11 -19.708 1.658 -19.074 1.191 C-13.62 -2.371 -6.003 -1.847 0 0 Z " fill="#2E3C33" transform="translate(644.25,183)"/>
<path d="M0 0 C3.112 1.728 5.654 3.647 8.094 6.211 C8.564 5.789 9.035 5.368 9.52 4.934 C10.142 4.386 10.765 3.838 11.406 3.273 C12.021 2.728 12.636 2.183 13.27 1.621 C16.978 -1.246 20.573 -1.09 25.094 -0.789 C30.265 0.876 33.123 2.64 36.094 7.211 C37.284 10.78 37.219 14.01 37.191 17.723 C37.19 18.451 37.189 19.179 37.187 19.929 C37.182 22.252 37.169 24.575 37.156 26.898 C37.151 28.475 37.147 30.051 37.143 31.627 C37.132 35.488 37.114 39.35 37.094 43.211 C34.784 43.211 32.474 43.211 30.094 43.211 C30.079 42.328 30.065 41.446 30.05 40.536 C29.988 37.247 29.914 33.958 29.831 30.668 C29.798 29.247 29.77 27.827 29.747 26.406 C29.714 24.357 29.661 22.31 29.605 20.262 C29.579 19.031 29.553 17.8 29.526 16.532 C29.064 12.984 28.241 11.046 26.094 8.211 C22.067 6.643 18.171 6.821 14.156 8.273 C10.863 11.367 10.22 14.958 9.775 19.371 C9.743 20.47 9.712 21.57 9.68 22.703 C9.641 23.902 9.602 25.101 9.562 26.336 C9.516 28.192 9.516 28.192 9.469 30.086 C9.43 31.347 9.391 32.607 9.352 33.906 C9.258 37.008 9.172 40.109 9.094 43.211 C6.784 43.211 4.474 43.211 2.094 43.211 C2.079 42.328 2.065 41.446 2.05 40.536 C1.988 37.247 1.914 33.958 1.831 30.668 C1.798 29.247 1.77 27.827 1.747 26.406 C1.714 24.357 1.661 22.31 1.605 20.262 C1.579 19.031 1.553 17.8 1.526 16.532 C1.064 12.984 0.228 11.054 -1.906 8.211 C-5.007 6.661 -7.485 6.921 -10.906 7.211 C-13.66 9.007 -15.433 10.263 -16.906 13.211 C-17.061 15.461 -17.156 17.715 -17.223 19.969 C-17.243 20.632 -17.264 21.295 -17.286 21.978 C-17.351 24.097 -17.41 26.217 -17.469 28.336 C-17.512 29.772 -17.556 31.208 -17.6 32.645 C-17.707 36.167 -17.808 39.689 -17.906 43.211 C-20.546 43.211 -23.186 43.211 -25.906 43.211 C-25.906 29.021 -25.906 14.831 -25.906 0.211 C-23.596 0.211 -21.286 0.211 -18.906 0.211 C-18.906 1.861 -18.906 3.511 -18.906 5.211 C-18.436 4.862 -17.965 4.512 -17.48 4.152 C-16.858 3.697 -16.235 3.242 -15.594 2.773 C-14.979 2.321 -14.364 1.869 -13.73 1.402 C-9.581 -1.308 -4.627 -1.915 0 0 Z " fill="#28352C" transform="translate(565.90625,98.7890625)"/>
<path d="M0 0 C4.636 2.505 7.467 6.006 9.98 10.531 C10.73 13.281 10.73 13.281 10.73 22.281 C0.17 22.281 -10.39 22.281 -21.27 22.281 C-19.071 30.549 -19.071 30.549 -16.27 33.844 C-11.656 36.054 -7.288 36.048 -2.27 35.281 C0.077 34.186 1.686 32.917 3.73 31.281 C4.72 31.281 5.71 31.281 6.73 31.281 C8.73 33.281 8.73 33.281 8.73 35.094 C7.181 38.484 4.706 40.123 1.73 42.281 C-4.342 44.31 -11.727 44.358 -17.582 41.719 C-23.318 38.397 -27.212 33.558 -29.27 27.281 C-30.391 18.934 -29.134 12.198 -24.27 5.281 C-18.043 -1.475 -8.679 -2.749 0 0 Z " fill="#334138" transform="translate(692.26953125,182.71875)"/>
<path d="M0 0 C4.012 2.59 6.43 5.782 7.918 10.246 C8.003 12.687 8.034 15.099 8.016 17.539 C8.014 18.245 8.013 18.951 8.011 19.679 C8.006 21.93 7.993 24.182 7.98 26.434 C7.975 27.962 7.971 29.49 7.967 31.018 C7.956 34.76 7.939 38.503 7.918 42.246 C5.608 42.246 3.298 42.246 0.918 42.246 C0.588 40.926 0.258 39.606 -0.082 38.246 C-0.866 38.885 -1.65 39.525 -2.457 40.184 C-7.598 44.223 -12.713 43.875 -19.082 43.246 C-22.603 41.204 -23.834 39.618 -26.082 36.246 C-26.739 31.31 -26.813 26.771 -24.645 22.246 C-17.022 16.297 -8.368 16.889 0.918 17.246 C-0.029 11.851 -0.029 11.851 -2.707 7.246 C-6.185 5.782 -9.423 5.435 -13.082 6.246 C-16.085 8.579 -16.085 8.579 -18.082 11.246 C-20.52 10.496 -20.52 10.496 -23.082 9.246 C-23.895 7.121 -23.895 7.121 -24.082 5.246 C-17.185 -0.732 -9.163 -3.318 0 0 Z " fill="#2A372C" transform="translate(490.08203125,182.75390625)"/>
<path d="M0 0 C3.758 2.108 5.437 5.013 6.762 8.988 C6.846 11.502 6.878 13.987 6.859 16.5 C6.858 17.228 6.857 17.956 6.855 18.707 C6.849 21.03 6.837 23.353 6.824 25.676 C6.819 27.252 6.815 28.828 6.811 30.404 C6.8 34.266 6.782 38.127 6.762 41.988 C4.782 41.988 2.802 41.988 0.762 41.988 C0.762 40.668 0.762 39.348 0.762 37.988 C-0.039 38.53 -0.039 38.53 -0.855 39.082 C-6.651 42.692 -11.414 44.253 -18.238 42.988 C-22.086 41.03 -25.326 38.92 -27.238 34.988 C-27.964 30.3 -27.683 26.911 -25.613 22.613 C-22.608 19.292 -19.722 17.272 -15.159 16.751 C-12.886 16.694 -10.635 16.726 -8.363 16.801 C-7.188 16.821 -7.188 16.821 -5.988 16.842 C-4.071 16.877 -2.155 16.931 -0.238 16.988 C-0.494 15.527 -0.768 14.069 -1.051 12.613 C-1.202 11.801 -1.352 10.989 -1.508 10.152 C-2.114 7.63 -2.114 7.63 -5.238 5.988 C-9.923 5.234 -13.293 5.371 -17.301 7.988 C-17.94 8.648 -18.58 9.308 -19.238 9.988 C-24.113 8.238 -24.113 8.238 -25.238 5.988 C-17.816 -2.088 -10.12 -4.195 0 0 Z " fill="#334238" transform="translate(754.23828125,100.01171875)"/>
<path d="M0 0 C4.75 4.872 5.145 8.976 5.098 15.512 C5.096 16.24 5.095 16.968 5.093 17.718 C5.088 20.042 5.075 22.364 5.062 24.688 C5.057 26.264 5.053 27.84 5.049 29.416 C5.038 33.277 5.021 37.139 5 41 C3.02 41 1.04 41 -1 41 C-1 39.35 -1 37.7 -1 36 C-1.66 36 -2.32 36 -3 36 C-3 36.66 -3 37.32 -3 38 C-8.792 41.37 -13.263 43.071 -20 42 C-22.812 40.75 -22.812 40.75 -25 39 C-25.763 38.505 -26.526 38.01 -27.312 37.5 C-30.126 33.332 -29.707 28.859 -29 24 C-26.59 19.55 -23.619 17.88 -19 16 C-16.028 15.657 -13.112 15.714 -10.125 15.812 C-8.949 15.833 -8.949 15.833 -7.75 15.854 C-5.833 15.889 -3.916 15.942 -2 16 C-2.778 9.853 -2.778 9.853 -6.125 4.875 C-9.997 3.697 -13.138 3.774 -17 5 C-19.484 6.895 -19.484 6.895 -21 9 C-22.98 8.34 -24.96 7.68 -27 7 C-26.674 3.957 -26.021 3.02 -23.75 0.875 C-16.189 -4.28 -7.978 -4.475 0 0 Z " fill="#314036" transform="translate(492,101)"/>
<path d="M0 0 C3.436 1.642 6.242 3.291 8.75 6.203 C9.961 9.835 9.874 13.154 9.848 16.934 C9.846 17.684 9.845 18.434 9.843 19.208 C9.838 21.602 9.825 23.996 9.812 26.391 C9.807 28.015 9.803 29.639 9.799 31.264 C9.788 35.244 9.771 39.223 9.75 43.203 C7.77 43.203 5.79 43.203 3.75 43.203 C3.75 41.883 3.75 40.563 3.75 39.203 C2.949 39.745 2.949 39.745 2.133 40.297 C-3.703 43.932 -8.387 45.321 -15.25 44.203 C-18.509 42.747 -20.963 40.948 -23.25 38.203 C-24.605 34.137 -24.774 30.454 -24.25 26.203 C-21.744 21.591 -18.166 19.668 -13.25 18.203 C-10.255 17.872 -7.321 17.915 -4.312 18.016 C-3.144 18.036 -3.144 18.036 -1.951 18.057 C-0.05 18.092 1.85 18.145 3.75 18.203 C2.265 11.811 2.265 11.811 -2 7.078 C-5.924 6.022 -8.337 6.116 -12.25 7.203 C-14.67 9.119 -14.67 9.119 -16.25 11.203 C-21.125 9.453 -21.125 9.453 -22.25 7.203 C-16.003 0.405 -9.125 -3.232 0 0 Z " fill="#29362D" transform="translate(637.25,98.796875)"/>
<path d="M0 0 C3.852 2.054 5.867 4.396 7.691 8.281 C7.943 11.007 8.043 13.491 7.984 16.207 C7.98 16.955 7.976 17.702 7.972 18.472 C7.955 20.847 7.917 23.22 7.879 25.594 C7.864 27.209 7.85 28.824 7.838 30.439 C7.805 34.387 7.753 38.334 7.691 42.281 C5.381 42.281 3.071 42.281 0.691 42.281 C0.361 41.291 0.031 40.301 -0.309 39.281 C-1.257 39.941 -2.206 40.601 -3.184 41.281 C-7.778 43.905 -12.139 44.019 -17.309 43.281 C-20.568 41.825 -23.021 40.026 -25.309 37.281 C-26.556 33.539 -26.941 30.162 -26.309 26.281 C-23.599 21.794 -20.958 19.423 -15.844 17.738 C-10.391 16.755 -4.824 17.072 0.691 17.281 C0.031 13.981 -0.629 10.681 -1.309 7.281 C-5.357 5.932 -9.081 5.585 -13.309 6.281 C-16.376 8.594 -16.376 8.594 -18.309 11.281 C-20.784 10.291 -20.784 10.291 -23.309 9.281 C-23.309 7.961 -23.309 6.641 -23.309 5.281 C-16.494 -1.089 -9.192 -2.862 0 0 Z " fill="#26342B" transform="translate(900.30859375,182.71875)"/>
<path d="M0 0 C3.057 2.352 4.566 4.491 6.438 7.875 C6.774 10.695 6.909 13.097 6.828 15.898 C6.822 16.645 6.817 17.391 6.811 18.16 C6.789 20.524 6.739 22.886 6.688 25.25 C6.667 26.861 6.649 28.471 6.633 30.082 C6.589 34.014 6.52 37.944 6.438 41.875 C4.457 41.875 2.477 41.875 0.438 41.875 C0.438 40.555 0.438 39.235 0.438 37.875 C-0.47 38.514 -1.378 39.154 -2.312 39.812 C-7.473 43.087 -12.527 43.629 -18.562 42.875 C-22.95 40.681 -25.656 38.43 -27.562 33.875 C-27.964 30.13 -27.895 27.669 -26.438 24.188 C-22.898 19.822 -19.062 17.661 -13.562 16.875 C-11.126 16.808 -8.687 16.79 -6.25 16.812 C-4.996 16.822 -3.741 16.831 -2.449 16.84 C-1.497 16.851 -0.544 16.863 0.438 16.875 C0.04 15.411 -0.381 13.954 -0.812 12.5 C-1.045 11.688 -1.277 10.876 -1.516 10.039 C-2.396 7.757 -2.396 7.757 -4.453 6.602 C-8.3 5.277 -12.049 5.343 -15.875 6.688 C-17.863 7.935 -17.863 7.935 -19.562 10.875 C-22.038 9.885 -22.038 9.885 -24.562 8.875 C-24.562 7.555 -24.562 6.235 -24.562 4.875 C-17.274 -1.938 -9.624 -3.039 0 0 Z " fill="#29372E" transform="translate(767.5625,183.125)"/>
<path d="M0 0 C11.55 0 23.1 0 35 0 C35 2.31 35 4.62 35 7 C26.09 7 17.18 7 8 7 C8 13.27 8 19.54 8 26 C15.92 26 23.84 26 32 26 C32 28.31 32 30.62 32 33 C24.08 33 16.16 33 8 33 C8 39.6 8 46.2 8 53 C17.24 53 26.48 53 36 53 C36 55.31 36 57.62 36 60 C24.12 60 12.24 60 0 60 C0 40.2 0 20.4 0 0 Z " fill="#243128" transform="translate(529,165)"/>
<path d="M0 0 C11.55 0 23.1 0 35 0 C35 2.31 35 4.62 35 7 C26.09 7 17.18 7 8 7 C8 14.26 8 21.52 8 29 C15.26 29 22.52 29 30 29 C30 31.31 30 33.62 30 36 C22.74 36 15.48 36 8 36 C8 44.25 8 52.5 8 61 C5.36 61 2.72 61 0 61 C0 40.87 0 20.74 0 0 Z " fill="#222F27" transform="translate(424,81)"/>
<path d="M0 0 C3.443 1.389 5.133 2.366 6.888 5.672 C9.681 13.15 9.335 20.708 9.188 28.562 C9.172 29.967 9.159 31.371 9.146 32.775 C9.111 36.184 9.062 39.592 9 43 C6.69 43 4.38 43 2 43 C1.985 42.148 1.971 41.295 1.956 40.417 C1.895 37.239 1.82 34.062 1.738 30.885 C1.704 29.512 1.676 28.14 1.654 26.767 C1.62 24.789 1.566 22.81 1.512 20.832 C1.486 19.643 1.459 18.455 1.432 17.23 C0.965 13.736 0.095 11.808 -2 9 C-5.466 7.267 -9.211 7.529 -13 8 C-16.069 9.503 -16.069 9.503 -18 12 C-18.995 15.713 -19.184 19.345 -19.316 23.176 C-19.358 24.333 -19.4 25.49 -19.443 26.682 C-19.502 28.479 -19.502 28.479 -19.562 30.312 C-19.627 32.139 -19.627 32.139 -19.693 34.002 C-19.799 37.001 -19.901 40.001 -20 43 C-22.31 43 -24.62 43 -27 43 C-27 29.14 -27 15.28 -27 1 C-24.69 1 -22.38 1 -20 1 C-19.67 2.32 -19.34 3.64 -19 5 C-18.092 4.175 -17.185 3.35 -16.25 2.5 C-11.212 -1.102 -5.95 -0.859 0 0 Z " fill="#212E25" transform="translate(815,182)"/>
<path d="M0 0 C3.295 1.901 5.512 4.066 7.562 7.312 C7.562 7.972 7.562 8.632 7.562 9.312 C5.582 10.302 3.602 11.293 1.562 12.312 C-0.438 10.312 -2.438 8.312 -4.438 6.312 C-8.888 5.884 -13.071 5.837 -17.312 7.312 C-21.341 11.104 -23.161 15.378 -23.938 20.812 C-23.21 25.907 -21.745 30.174 -17.895 33.742 C-14.211 36.187 -10.967 36.886 -6.504 36.074 C-2.604 34.637 0.456 32.015 3.562 29.312 C5.212 30.963 6.862 32.613 8.562 34.312 C5.39 39.071 1.985 41.666 -3.438 43.312 C-10.788 44.291 -17.413 43.911 -23.438 39.312 C-28.059 34.959 -31.064 30.707 -31.773 24.262 C-31.869 16.282 -31.395 10.505 -25.789 4.566 C-18.531 -2.042 -9.204 -4.257 0 0 Z " fill="#243228" transform="translate(689.4375,99.6875)"/>
<path d="M0 0 C10.23 0 20.46 0 31 0 C31 6.748 31 6.748 28.727 9.41 C28.236 10.002 27.745 10.593 27.239 11.203 C26.707 11.817 26.174 12.43 25.625 13.062 C24.527 14.377 23.431 15.692 22.336 17.008 C21.78 17.668 21.224 18.328 20.651 19.009 C18.099 22.087 15.672 25.257 13.25 28.438 C11.847 30.273 10.445 32.109 9 34 C16.26 34.33 23.52 34.66 31 35 C31 37.31 31 39.62 31 42 C19.78 42 8.56 42 -3 42 C-3 35.645 -2.182 34.301 1.812 30.062 C6.784 24.531 11.209 18.769 15.47 12.674 C16.601 11.083 17.795 9.536 19 8 C19.66 8 20.32 8 21 8 C21 7.34 21 6.68 21 6 C14.07 6 7.14 6 0 6 C0 4.02 0 2.04 0 0 Z " fill="#243128" transform="translate(836,183)"/>
<path d="M0 0 C4.308 1.963 6.757 3.811 8.742 8.277 C6.762 9.267 4.782 10.257 2.742 11.277 C2.041 10.638 1.34 9.999 0.617 9.34 C-2.577 7.048 -4.346 6.359 -8.258 6.277 C-11.094 7.594 -11.094 7.594 -13.258 9.277 C-13.227 11.693 -13.227 11.693 -12.258 14.277 C-8.951 16.427 -5.488 17.537 -1.758 18.715 C2.327 20.026 5.352 21.65 8.742 24.277 C10.607 28.007 10.303 32.217 9.742 36.277 C7.766 40.167 4.786 42.7 0.742 44.277 C-6.889 45.135 -13.122 45.107 -19.258 40.277 C-23.258 35.97 -23.258 35.97 -23.258 33.277 C-21.278 32.287 -19.298 31.297 -17.258 30.277 C-16.68 31.061 -16.103 31.845 -15.508 32.652 C-12.501 36.161 -10.847 37.145 -6.258 37.527 C-2.422 37.232 -2.422 37.232 0.742 35.277 C1.824 32.367 1.824 32.367 1.742 29.277 C-0.557 26.091 -3.402 25.415 -7.07 24.34 C-11.788 22.849 -15.418 21.391 -19.258 18.277 C-21.002 14.788 -20.834 11.084 -20.258 7.277 C-16.073 -0.674 -8.163 -2.613 0 0 Z " fill="#26342B" transform="translate(793.2578125,98.72265625)"/>
<path d="M0 0 C3.159 1.304 4.519 2.519 7 5 C7.672 7.172 7.672 7.172 8 9 C5.312 10.25 5.312 10.25 2 11 C0.325 9.677 -1.341 8.343 -3 7 C-6.597 6.313 -9.852 6.304 -13.062 8.25 C-14.157 9.963 -14.157 9.963 -14 12 C-12.519 14.962 -11.013 15.586 -8 17 C-6.378 17.45 -4.753 17.886 -3.125 18.312 C1.876 19.78 6.059 21.514 9 26 C10.049 30.191 10.034 34.03 8 37.906 C5.736 40.793 3.383 42.68 0 44 C-5.73 44.644 -11.899 45.077 -17.125 42.312 C-19.97 40.024 -21.517 38.316 -23 35 C-23 34.34 -23 33.68 -23 33 C-21.02 32.01 -19.04 31.02 -17 30 C-16.608 30.784 -16.216 31.567 -15.812 32.375 C-13.676 35.47 -12.639 36.173 -9 37 C-5.572 36.823 -3.012 36.62 -0.062 34.812 C1.473 32.194 1.198 29.971 1 27 C0.299 26.83 -0.403 26.66 -1.125 26.484 C-7.981 24.733 -14.509 22.946 -20 18.312 C-21.62 14.567 -21.778 10.996 -21 7 C-15.109 -0.483 -9.057 -1.078 0 0 Z " fill="#212E25" transform="translate(595,182)"/>
<path d="M0 0 C2.64 0 5.28 0 8 0 C8 17.49 8 34.98 8 53 C16.58 53 25.16 53 34 53 C34 55.31 34 57.62 34 60 C22.78 60 11.56 60 0 60 C0 40.2 0 20.4 0 0 Z " fill="#202D24" transform="translate(424,165)"/>
<path d="M0 0 C3.71 1.786 5.528 3.323 7.875 6.688 C9.743 12.188 9.806 16.865 7.75 22.312 C5.265 26.129 3.373 28.542 -1 30 C-5.132 30.39 -7.46 30.275 -11.188 28.375 C-14.794 25.33 -17.563 22.689 -18.348 17.859 C-18.552 12.644 -17.684 8.562 -15 4 C-10.403 -0.268 -6.029 -1.059 0 0 Z " fill="#F8FAF7" transform="translate(639,189)"/>
<path d="M0 0 C0.66 0.33 1.32 0.66 2 1 C1.01 1.66 0.02 2.32 -1 3 C1.475 3.99 1.475 3.99 4 5 C3.072 6.33 3.072 6.33 2.125 7.688 C-0.241 11.146 -0.241 11.146 -2 16 C5.92 16 13.84 16 22 16 C22 16.33 22 16.66 22 17 C13.585 17.495 13.585 17.495 5 18 C5 18.66 5 19.32 5 20 C17.375 19.505 17.375 19.505 30 19 C30 19.66 30 20.32 30 21 C19.44 21 8.88 21 -2 21 C0.198 29.268 0.198 29.268 3 32.562 C7.613 34.773 11.981 34.766 17 34 C19.347 32.905 20.956 31.636 23 30 C23.99 30 24.98 30 26 30 C28 32 28 32 28 33.812 C26.45 37.202 23.975 38.841 21 41 C14.928 43.028 7.542 43.077 1.688 40.438 C-4.048 37.116 -7.942 32.276 -10 26 C-11.122 17.652 -9.84 10.933 -5 4 C-2.188 1.375 -2.188 1.375 0 0 Z M-3 4 C-3.99 5.485 -3.99 5.485 -5 7 C-4.34 7 -3.68 7 -3 7 C-2.67 7.66 -2.34 8.32 -2 9 C-1.67 7.68 -1.34 6.36 -1 5 C-1.66 4.67 -2.32 4.34 -3 4 Z M-1 6 C-0.67 6.66 -0.34 7.32 0 8 C0.33 7.34 0.66 6.68 1 6 C0.34 6 -0.32 6 -1 6 Z " fill="#212E25" transform="translate(673,184)"/>
<path d="M0 0 C2.31 0 4.62 0 7 0 C7 1.65 7 3.3 7 5 C7.928 4.154 8.856 3.309 9.812 2.438 C14.134 -0.728 17.727 -0.131 22.84 0.605 C23.909 0.801 23.909 0.801 25 1 C24.27 2.969 24.27 2.969 23 5 C21.012 5.469 21.012 5.469 18.688 5.5 C14.231 5.561 12.128 6.805 9 10 C8.482 12.735 8.278 14.874 8.293 17.609 C8.278 18.336 8.263 19.063 8.247 19.812 C8.204 22.125 8.195 24.437 8.188 26.75 C8.164 28.322 8.139 29.893 8.111 31.465 C8.048 35.31 8.016 39.154 8 43 C5.36 43 2.72 43 0 43 C0 28.81 0 14.62 0 0 Z M25 2 C25.66 2 26.32 2 27 2 C26.67 2.66 26.34 3.32 26 4 C25.67 3.34 25.34 2.68 25 2 Z M30 10 C30.66 10.66 31.32 11.32 32 12 C31.34 12 30.68 12 30 12 C30 11.34 30 10.68 30 10 Z " fill="#354638" transform="translate(540,99)"/>
<path d="M0 0 C0 2.64 0 5.28 0 8 C-0.905 8.147 -0.905 8.147 -1.828 8.297 C-8.335 9.495 -8.335 9.495 -13 14 C-14.093 17.338 -14.196 20.583 -14.316 24.078 C-14.358 25.238 -14.4 26.398 -14.443 27.594 C-14.502 29.404 -14.502 29.404 -14.562 31.25 C-14.627 33.083 -14.627 33.083 -14.693 34.953 C-14.799 37.969 -14.901 40.984 -15 44 C-17.31 44 -19.62 44 -22 44 C-22 29.81 -22 15.62 -22 1 C-20.02 1 -18.04 1 -16 1 C-15.34 2.32 -14.68 3.64 -14 5 C-13.492 4.639 -12.984 4.278 -12.461 3.906 C-8.168 1.012 -5.366 -0.671 0 0 Z " fill="#243128" transform="translate(532,98)"/>
<path d="M0 0 C0 2.64 0 5.28 0 8 C-0.687 8.098 -1.374 8.196 -2.082 8.297 C-2.983 8.446 -3.884 8.596 -4.812 8.75 C-5.706 8.889 -6.599 9.028 -7.52 9.172 C-10.559 10.187 -11.398 11.271 -13 14 C-14.058 17.175 -14.202 19.643 -14.316 22.98 C-14.358 24.144 -14.4 25.307 -14.443 26.506 C-14.483 27.721 -14.522 28.936 -14.562 30.188 C-14.606 31.414 -14.649 32.641 -14.693 33.904 C-14.8 36.936 -14.902 39.968 -15 43 C-17.31 43 -19.62 43 -22 43 C-22 29.14 -22 15.28 -22 1 C-20.02 1 -18.04 1 -16 1 C-15.34 2.32 -14.68 3.64 -14 5 C-13.237 4.361 -12.474 3.721 -11.688 3.062 C-7.709 0.01 -4.885 -0.109 0 0 Z " fill="#202D25" transform="translate(735,182)"/>
<path d="M0 0 C2.438 1.688 2.438 1.688 4.438 4.688 C2.457 4.028 0.477 3.368 -1.562 2.688 C-1.957 3.172 -2.351 3.657 -2.758 4.156 C-5.07 6.118 -6.441 6.078 -9.438 6.188 C-13.578 6.513 -16.382 6.796 -19.562 9.688 C-22.547 14.834 -23.581 19.767 -22.562 25.688 C-21.452 28.034 -20.226 29.66 -18.562 31.688 C-18.893 32.347 -19.222 33.007 -19.562 33.688 C-22.219 30.765 -23.535 28.784 -24.625 24.938 C-24.934 23.865 -25.244 22.792 -25.562 21.688 C-26.553 21.358 -27.543 21.028 -28.562 20.688 C-28.562 14.417 -28.562 8.148 -28.562 1.688 C-27.903 1.357 -27.242 1.028 -26.562 0.688 C-27.553 0.688 -28.543 0.688 -29.562 0.688 C-29.562 20.488 -29.562 40.287 -29.562 60.688 C-27.913 60.688 -26.263 60.688 -24.562 60.688 C-24.562 61.017 -24.562 61.347 -24.562 61.688 C-26.543 61.688 -28.523 61.688 -30.562 61.688 C-30.562 41.227 -30.562 20.767 -30.562 -0.312 C-28.582 -0.312 -26.602 -0.312 -24.562 -0.312 C-24.562 1.338 -24.562 2.988 -24.562 4.688 C-24.092 4.338 -23.621 3.989 -23.137 3.629 C-22.514 3.174 -21.891 2.719 -21.25 2.25 C-20.635 1.798 -20.02 1.345 -19.387 0.879 C-13.806 -2.766 -6.013 -2.215 0 0 Z M-3.562 4.688 C-2.077 5.678 -2.077 5.678 -0.562 6.688 C-0.893 7.347 -1.222 8.007 -1.562 8.688 C-2.553 7.697 -3.543 6.708 -4.562 5.688 C-4.232 5.357 -3.903 5.028 -3.562 4.688 Z M4.438 4.688 C5.923 5.678 5.923 5.678 7.438 6.688 C7.107 7.347 6.778 8.007 6.438 8.688 C5.778 7.368 5.117 6.048 4.438 4.688 Z M-0.562 8.688 C0.097 8.688 0.758 8.688 1.438 8.688 C1.768 10.007 2.097 11.327 2.438 12.688 C1.416 11.709 0.417 10.708 -0.562 9.688 C-0.562 9.357 -0.562 9.028 -0.562 8.688 Z " fill="#1E2B22" transform="translate(644.5625,183.3125)"/>
<path d="M0 0 C6.155 -0.502 9.028 0.653 14 4 C15.938 5.75 15.938 5.75 17 7 C17.66 6.67 18.32 6.34 19 6 C19 6.99 19 7.98 19 9 C20.32 8.67 21.64 8.34 23 8 C22.526 8.743 22.051 9.485 21.562 10.25 C19.084 14.612 18.848 18.308 18.684 23.297 C18.642 24.502 18.6 25.707 18.557 26.949 C18.517 28.203 18.478 29.458 18.438 30.75 C18.394 32.02 18.351 33.289 18.307 34.598 C18.201 37.732 18.099 40.866 18 44 C15.69 44 13.38 44 11 44 C10.98 43.128 10.96 42.256 10.94 41.357 C10.861 38.094 10.775 34.83 10.683 31.567 C10.645 30.16 10.61 28.753 10.578 27.345 C10.532 25.312 10.474 23.279 10.414 21.246 C10.367 19.416 10.367 19.416 10.319 17.549 C10.118 13.923 10.118 13.923 8.849 10.297 C8 7 8 7 10 3 C6.37 2.67 2.74 2.34 -1 2 C-0.67 1.34 -0.34 0.68 0 0 Z M13 6 C14 8 14 8 14 8 Z M11 7 C11 7.99 11 8.98 11 10 C11.66 9.34 12.32 8.68 13 8 C12.34 7.67 11.68 7.34 11 7 Z M13 11 C13 11.66 13 12.32 13 13 C13.66 12.67 14.32 12.34 15 12 C14.34 11.67 13.68 11.34 13 11 Z M12 13 C13 15 13 15 13 15 Z M27.25 0.75 C28.611 0.874 28.611 0.874 30 1 C26.775 2.737 23.487 3.891 20 5 C22.411 2.033 23.347 1.05 27.25 0.75 Z M7 3 C7.66 3.66 8.32 4.32 9 5 C8.67 5.99 8.34 6.98 8 8 C7.359 7.942 6.719 7.884 6.059 7.824 C-0.753 7.469 -3.854 8.525 -9 13 C-7.59 9.594 -6.27 7.761 -3 6 C-0.637 5.644 1.688 5.437 4.074 5.309 C4.71 5.207 5.345 5.105 6 5 C6.33 4.34 6.66 3.68 7 3 Z " fill="#1E2B22" transform="translate(557,98)"/>
<path d="M0 0 C2.64 0 5.28 0 8 0 C8 14.19 8 28.38 8 43 C5.36 43 2.72 43 0 43 C0 28.81 0 14.62 0 0 Z " fill="#1E2B22" transform="translate(708,99)"/>
<path d="M0 0 C2 2 2 2 2.125 4.625 C2.084 5.409 2.043 6.192 2 7 C0 4 0 4 0 0 Z M-7.688 6.875 C-6.852 6.884 -6.016 6.893 -5.154 6.902 C-3.103 6.926 -1.051 6.962 1 7 C1 7.33 1 7.66 1 8 C-4.94 8.495 -4.94 8.495 -11 9 C-8.061 9.217 -8.061 9.217 -5.062 9.438 C0.875 9.875 0.875 9.875 2 11 C2.041 13 2.043 15 2 17 C1.67 17 1.34 17 1 17 C1 15.35 1 13.7 1 12 C-1.418 12.087 -3.833 12.194 -6.25 12.312 C-6.932 12.335 -7.614 12.358 -8.316 12.381 C-11.382 12.545 -13.729 12.859 -16.469 14.281 C-18.159 15.882 -18.159 15.882 -18.391 18.043 C-18.344 18.751 -18.298 19.458 -18.25 20.188 C-18.126 22.075 -18.126 22.075 -18 24 C-11.328 25.236 -11.328 25.236 -5 23.5 C-4.34 23.005 -3.68 22.51 -3 22 C-2.34 22.33 -1.68 22.66 -1 23 C-1.99 24.32 -2.98 25.64 -4 27 C-3.34 27 -2.68 27 -2 27 C-2 27.66 -2 28.32 -2 29 C-7.268 32.327 -11.94 32.76 -18 32 C-21.259 30.544 -23.713 28.745 -26 26 C-27.245 22.264 -27.652 18.874 -27 15 C-25.32 11.814 -23.085 9.599 -19.906 7.844 C-15.806 6.653 -11.932 6.788 -7.688 6.875 Z M-10 27 C-9.67 27.99 -9.34 28.98 -9 30 C-7.68 29.34 -6.36 28.68 -5 28 C-6.65 27.67 -8.3 27.34 -10 27 Z M-9 28 C-7 29 -7 29 -7 29 Z " fill="#233128" transform="translate(901,194)"/>
<path d="M0 0 C1.176 0.027 1.176 0.027 2.375 0.055 C4.292 0.101 6.209 0.173 8.125 0.25 C8.125 0.58 8.125 0.91 8.125 1.25 C3.67 1.745 3.67 1.745 -0.875 2.25 C4.57 2.745 4.57 2.745 10.125 3.25 C7.012 6.363 3.423 5.645 -0.832 5.809 C-4.226 6.301 -6.166 7.166 -8.875 9.25 C-9.625 12.25 -9.625 12.25 -8.875 15.25 C-7.395 17.298 -7.395 17.298 -4.875 18.25 C-1.013 18.526 2.425 18.434 6.125 17.25 C4.192 19.275 2.493 20.671 0.125 22.25 C1.775 22.25 3.425 22.25 5.125 22.25 C4.125 24.25 4.125 24.25 2.336 24.855 C-2.986 25.805 -7.344 26.015 -12.25 23.562 C-16.124 20.15 -17.695 17.934 -18.25 12.75 C-17.703 7.643 -16.237 5.381 -12.312 2.121 C-7.958 -0.249 -4.85 -0.214 0 0 Z M-4.875 2.25 C-4.875 2.91 -4.875 3.57 -4.875 4.25 C-4.215 4.25 -3.555 4.25 -2.875 4.25 C-2.875 3.59 -2.875 2.93 -2.875 2.25 C-3.535 2.25 -4.195 2.25 -4.875 2.25 Z M10.125 4.25 C10.455 4.25 10.785 4.25 11.125 4.25 C11.125 6.56 11.125 8.87 11.125 11.25 C10.795 11.25 10.465 11.25 10.125 11.25 C10.125 8.94 10.125 6.63 10.125 4.25 Z M9.125 12.25 C9.125 13.24 9.125 14.23 9.125 15.25 C8.135 15.745 8.135 15.745 7.125 16.25 C7.785 14.93 8.445 13.61 9.125 12.25 Z M7.125 19.25 C7.785 19.58 8.445 19.91 9.125 20.25 C7.145 21.24 7.145 21.24 5.125 22.25 C5.785 21.26 6.445 20.27 7.125 19.25 Z " fill="#27352B" transform="translate(757.875,200.75)"/>
<path d="M0 0 C0.99 0.495 0.99 0.495 2 1 C1.01 1.495 1.01 1.495 0 2 C0 1.34 0 0.68 0 0 Z M6 0 C8 1 8 1 8 1 Z M-2 1 C-1.34 1.33 -0.68 1.66 0 2 C0 2.99 0 3.98 0 5 C-0.66 4.67 -1.32 4.34 -2 4 C-2 3.01 -2 2.02 -2 1 Z M2 1 C4.97 1.495 4.97 1.495 8 2 C7.67 2.99 7.34 3.98 7 5 C4.03 4.505 4.03 4.505 1 4 C1.33 3.01 1.66 2.02 2 1 Z M7 5 C9 6 9 6 9 6 Z M12.438 4.625 C15 5 15 5 16.652 6.719 C18.677 10.146 18.277 12.668 17.793 16.52 C16.45 20.721 13.472 22.543 10 25 C10 25.33 10 25.66 10 26 C-3.959 26.756 -3.959 26.756 -10 22 C-14 17.692 -14 17.692 -14 15 C-12.02 14.01 -10.04 13.02 -8 12 C-7.423 12.784 -6.845 13.567 -6.25 14.375 C-3.243 17.883 -1.589 18.868 3 19.25 C6.836 18.954 6.836 18.954 10 17 C11.089 14.134 11.089 14.134 11 11 C9.689 8.637 9.689 8.637 8 7 C10 5 10 5 12.438 4.625 Z " fill="#324037" transform="translate(784,117)"/>
<path d="M0 0 C5.251 2.452 9.807 5.614 12.438 10.875 C13.876 18.864 13.201 26.118 8.676 33.02 C5.622 36.826 2.711 39.43 -2 41 C-5.02 41.218 -7.979 41.181 -11 41 C-11 40.67 -11 40.34 -11 40 C-7.7 39.34 -4.4 38.68 -1 38 C-1 36.68 -1 35.36 -1 34 C-2.485 34.495 -2.485 34.495 -4 35 C-5.394 35.067 -6.792 35.085 -8.188 35.062 C-9.446 35.042 -10.704 35.021 -12 35 C-12 34.67 -12 34.34 -12 34 C-11.336 33.925 -10.672 33.85 -9.988 33.773 C-3.723 32.893 -3.723 32.893 1.062 29.062 C3.739 24.831 4.137 21.978 4.125 17.062 C4.128 16.022 4.13 14.982 4.133 13.91 C4.019 11.423 3.719 9.369 3 7 C2.34 7 1.68 7 1 7 C-0.062 4.625 -0.062 4.625 -1 2 C-0.67 1.34 -0.34 0.68 0 0 Z " fill="#29372D" transform="translate(643,185)"/>
<path d="M0 0 C0 2.31 0 4.62 0 7 C-8.91 7 -17.82 7 -27 7 C-27 14.26 -27 21.52 -27 29 C-27.99 29.33 -28.98 29.66 -30 30 C-30.66 29.34 -31.32 28.68 -32 28 C-31.34 28 -30.68 28 -30 28 C-30.113 25.854 -30.241 23.708 -30.375 21.562 C-30.445 20.368 -30.514 19.173 -30.586 17.941 C-30.723 16.971 -30.859 16 -31 15 C-31.66 14.67 -32.32 14.34 -33 14 C-33 17.63 -33 21.26 -33 25 C-33.33 25 -33.66 25 -34 25 C-34 17.08 -34 9.16 -34 1 C-29.64 0.857 -25.28 0.715 -20.92 0.573 C-19.437 0.524 -17.954 0.476 -16.471 0.427 C-14.339 0.357 -12.206 0.288 -10.074 0.219 C-8.791 0.177 -7.508 0.135 -6.186 0.092 C-4.125 0.032 -2.062 0 0 0 Z M-34 26 C-33.01 26.495 -33.01 26.495 -32 27 C-32 27.99 -32 28.98 -32 30 C-32.66 30 -33.32 30 -34 30 C-34 28.68 -34 27.36 -34 26 Z " fill="#2E3D33" transform="translate(459,81)"/>
<path d="M0 0 C0 0.33 0 0.66 0 1 C-0.843 1.182 -1.686 1.364 -2.555 1.551 C-4.198 1.928 -4.198 1.928 -5.875 2.312 C-6.966 2.556 -8.056 2.8 -9.18 3.051 C-12.294 3.779 -12.294 3.779 -14 7 C-13.918 10.077 -13.918 10.077 -13 13 C-9.228 15.515 -7.48 15.448 -3 15 C-0.464 13.868 1.661 12.527 4 11 C3.839 15.189 3.619 17.347 0.688 20.438 C-4.07 23.105 -9.755 22.743 -15 22 C-18.521 19.958 -19.752 18.372 -22 15 C-22.689 9.827 -22.842 5.404 -20.125 0.875 C-14.292 -4.272 -6.88 -1.747 0 0 Z " fill="#27352C" transform="translate(486,204)"/>
<path d="M0 0 C0 0.66 0 1.32 0 2 C4.95 2.33 9.9 2.66 15 3 C15 3.33 15 3.66 15 4 C13.554 4.073 13.554 4.073 12.078 4.148 C10.815 4.223 9.552 4.298 8.25 4.375 C6.371 4.479 6.371 4.479 4.453 4.586 C1.377 4.955 -0.464 5.289 -3 7 C-4.414 9.829 -4.319 11.874 -4 15 C-2.658 17.155 -2.658 17.155 0 18 C3.96 18.31 7.556 18.204 10.695 15.586 C12.24 13.784 12.24 13.784 14 11 C14.33 11.99 14.66 12.98 15 14 C14.518 14.41 14.036 14.82 13.539 15.242 C12.907 15.781 12.276 16.32 11.625 16.875 C10.685 17.676 10.685 17.676 9.727 18.492 C8.442 19.614 7.206 20.794 6 22 C7.65 21.67 9.3 21.34 11 21 C7.802 24.343 5.885 25.179 1.25 25.312 C-4.642 25.253 -7.566 23.191 -11.875 19.312 C-13.683 15.596 -13.638 12.045 -13 8 C-11.348 4.756 -10.026 2.728 -7.062 0.625 C-4.625 -0.114 -2.533 -0.141 0 0 Z M15 4 C15.33 4 15.66 4 16 4 C16 5.98 16 7.96 16 10 C15.67 10 15.34 10 15 10 C15 8.02 15 6.04 15 4 Z M12 19 C12.33 19.66 12.66 20.32 13 21 C12.34 20.67 11.68 20.34 11 20 C11.33 19.67 11.66 19.34 12 19 Z " fill="#2A372E" transform="translate(740,118)"/>
<path d="M0 0 C2.5 1.375 2.5 1.375 5 3 C5.66 3.33 6.32 3.66 7 4 C7.861 13.676 7.861 13.676 4.75 17.5 C-0.572 22.338 -4.727 22.435 -11.793 22.316 C-16.33 21.869 -18.454 20.853 -22 18 C-25 13.935 -25 13.935 -25 11 C-23.02 10.01 -21.04 9.02 -19 8 C-18.608 8.784 -18.216 9.567 -17.812 10.375 C-15.658 13.495 -14.65 14.108 -11 15 C-7.488 15.385 -4.245 15.622 -1 14 C0.64 10.72 0.178 7.629 0 4 C-0.99 3.67 -1.98 3.34 -3 3 C-2 1 -2 1 0 0 Z " fill="#28362D" transform="translate(597,204)"/>
<path d="M0 0 C0.33 0 0.66 0 1 0 C1 9.9 1 19.8 1 30 C-0.98 30 -2.96 30 -5 30 C-5 28.35 -5 26.7 -5 25 C-5.66 25 -6.32 25 -7 25 C-7 25.66 -7 26.32 -7 27 C-12.973 30.475 -17.115 31.574 -24 31 C-24.33 30.34 -24.66 29.68 -25 29 C-23.35 29 -21.7 29 -20 29 C-19.774 26.876 -19.774 26.876 -21.5 25.375 C-21.995 24.921 -22.49 24.468 -23 24 C-22.112 24.052 -22.112 24.052 -21.207 24.105 C-16.279 24.274 -12.983 24.259 -9 21 C-7.066 18.099 -6.699 17.103 -6.375 13.812 C-6.251 12.554 -6.127 11.296 -6 10 C-10.29 10 -14.58 10 -19 10 C-19 9.67 -19 9.34 -19 9 C-14.05 9 -9.1 9 -4 9 C-3.67 8.34 -3.34 7.68 -3 7 C-2.67 7 -2.34 7 -2 7 C-1.34 4.69 -0.68 2.38 0 0 Z " fill="#324137" transform="translate(496,112)"/>
<path d="M0 0 C2.796 2.656 3.908 3.961 4.25 7.812 C4.168 8.534 4.085 9.256 4 10 C3.01 10.33 2.02 10.66 1 11 C0.34 12.98 -0.32 14.96 -1 17 C-5.29 17 -9.58 17 -14 17 C-14 16.67 -14 16.34 -14 16 C-10.04 16 -6.08 16 -2 16 C-2.783 9.811 -2.783 9.811 -6.125 4.875 C-9.997 3.697 -13.138 3.774 -17 5 C-19.484 6.895 -19.484 6.895 -21 9 C-22.98 8.34 -24.96 7.68 -27 7 C-26.674 3.957 -26.021 3.02 -23.75 0.875 C-16.163 -4.298 -8.005 -4.445 0 0 Z " fill="#1C281F" transform="translate(492,101)"/>
<path d="M0 0 C1.078 0.009 2.155 0.018 3.266 0.027 C4.085 0.039 4.905 0.051 5.75 0.062 C5.638 4.728 5.382 8.114 2.75 12.062 C-1.12 14.643 -4.611 15.386 -9.25 15.062 C-12.984 13.594 -12.984 13.594 -14.25 11.062 C-14.646 7.423 -14.745 5.716 -12.5 2.75 C-8.534 -0.225 -4.862 -0.053 0 0 Z " fill="#F5F7F3" transform="translate(635.25,121.9375)"/>
<path d="M0 0 C1.281 0.009 2.563 0.018 3.883 0.027 C4.87 0.039 5.858 0.051 6.875 0.062 C6.631 4.771 6.271 7.382 3.875 11.5 C0.451 14.425 -1.552 15.094 -5.965 15.293 C-8.125 15.062 -8.125 15.062 -11.188 13.5 C-13.125 11.062 -13.125 11.062 -13.688 8.062 C-13.012 4.46 -11.958 3.312 -9.125 1.062 C-6.122 -0.439 -3.334 -0.03 0 0 Z " fill="#F3F6F2" transform="translate(748.125,121.9375)"/>
<path d="M0 0 C1.63 0.014 1.63 0.014 3.293 0.027 C4.124 0.039 4.956 0.051 5.812 0.062 C6.482 7.83 6.482 7.83 3.5 11.5 C0.292 14.559 -1.246 14.994 -5.625 15.312 C-9.188 15.062 -9.188 15.062 -11.625 14.062 C-13.744 11.351 -13.749 9.311 -13.582 5.934 C-13.188 4.062 -13.188 4.062 -11.375 2.125 C-7.405 0.197 -4.368 -0.047 0 0 Z " fill="#F3F7F2" transform="translate(484.1875,121.9375)"/>
<path d="M0 0 C2.316 1.802 3.818 3.188 5.25 5.75 C5.25 7.4 5.25 9.05 5.25 10.75 C-2.67 10.75 -10.59 10.75 -18.75 10.75 C-16.437 2.655 -16.437 2.655 -12.75 -0.25 C-8.23 -1.757 -4.39 -1.996 0 0 Z " fill="#EFF3ED" transform="translate(689.75,189.25)"/>
<path d="M0 0 C1.254 0.027 2.509 0.054 3.801 0.082 C4.753 0.117 5.706 0.152 6.688 0.188 C6.495 8.359 6.495 8.359 3.25 11.688 C-0.939 14.139 -3.369 14.69 -8.312 14.188 C-11.312 12.062 -11.312 12.062 -13.312 9.188 C-13.438 6.062 -13.438 6.062 -12.312 3.188 C-8.257 -0.013 -5.07 -0.142 0 0 Z " fill="#F6F9F5" transform="translate(484.3125,205.8125)"/>
<path d="M0 0 C1.32 0 2.64 0 4 0 C4.33 1.65 4.66 3.3 5 5 C6.65 4.34 8.3 3.68 10 3 C9.3 6.151 8.224 9.016 7 12 C5.963 15.111 5.8 17.495 5.684 20.762 C5.642 21.88 5.6 22.998 5.557 24.15 C5.517 25.318 5.478 26.485 5.438 27.688 C5.373 29.456 5.373 29.456 5.307 31.26 C5.2 34.173 5.098 37.086 5 40 C3.35 40 1.7 40 0 40 C0 26.8 0 13.6 0 0 Z M11 3 C13 4 13 4 13 4 Z " fill="#303F35" transform="translate(789,184)"/>
<path d="M0 0 C1.272 0.009 2.545 0.018 3.855 0.027 C5.319 0.045 5.319 0.045 6.812 0.062 C6.444 7.301 6.444 7.301 3.375 11 C-0.649 14.239 -3.003 14.502 -8.188 14.062 C-11.125 12.438 -11.125 12.438 -13.188 10.062 C-13.688 7 -13.688 7 -13.188 4.062 C-9.843 -0.555 -5.267 -0.048 0 0 Z " fill="#F6F9F5" transform="translate(761.1875,205.9375)"/>
<path d="M0 0 C3.436 1.642 6.242 3.291 8.75 6.203 C9.961 9.835 9.874 13.154 9.848 16.934 C9.846 17.684 9.845 18.434 9.843 19.208 C9.838 21.602 9.825 23.996 9.812 26.391 C9.807 28.015 9.803 29.639 9.799 31.264 C9.788 35.244 9.771 39.223 9.75 43.203 C7.77 43.203 5.79 43.203 3.75 43.203 C3.75 42.873 3.75 42.543 3.75 42.203 C5.4 42.203 7.05 42.203 8.75 42.203 C8.656 37.879 8.55 33.556 8.433 29.233 C8.394 27.764 8.36 26.294 8.328 24.825 C8.282 22.707 8.224 20.59 8.164 18.473 C8.117 16.564 8.117 16.564 8.069 14.616 C7.768 11.394 7.132 9.106 5.75 6.203 C4.76 6.533 3.77 6.863 2.75 7.203 C3.08 8.523 3.41 9.843 3.75 11.203 C3.09 11.203 2.43 11.203 1.75 11.203 C1.193 10.564 0.636 9.924 0.062 9.266 C-3.038 6.5 -5.136 6.275 -9.25 6.203 C-11.964 7.431 -11.964 7.431 -14.25 9.203 C-15.576 9.884 -16.907 10.556 -18.25 11.203 C-19.57 9.883 -20.89 8.563 -22.25 7.203 C-16.003 0.405 -9.125 -3.232 0 0 Z M-0.25 5.203 C0.41 5.863 1.07 6.523 1.75 7.203 C1.75 6.543 1.75 5.883 1.75 5.203 C1.09 5.203 0.43 5.203 -0.25 5.203 Z " fill="#202D23" transform="translate(637.25,98.796875)"/>
<path d="M0 0 C0.693 0.018 1.386 0.036 2.1 0.055 C3.796 0.101 5.492 0.173 7.188 0.25 C6.512 4.41 5.879 8.144 3.625 11.75 C0.047 13.952 -3.632 14.471 -7.812 14.25 C-11.541 12.793 -11.541 12.793 -12.812 10.25 C-13.188 7.375 -13.188 7.375 -12.812 4.25 C-8.903 0.063 -5.462 -0.272 0 0 Z " fill="#F6F9F5" transform="translate(894.8125,205.75)"/>
<path d="M0 0 C0.99 0.495 1.98 0.99 3 1.5 C2.01 1.995 2.01 1.995 1 2.5 C0.34 2.17 -0.32 1.84 -1 1.5 C-0.538 4.09 -0.028 5.465 1.625 7.562 C2.079 8.202 2.533 8.841 3 9.5 C2.67 10.49 2.34 11.48 2 12.5 C1.319 11.293 1.319 11.293 0.625 10.062 C-0.747 7.411 -0.747 7.411 -3 6.5 C-7.727 5.933 -11.007 5.852 -15.062 8.5 C-15.702 9.16 -16.341 9.82 -17 10.5 C-21.875 8.75 -21.875 8.75 -23 6.5 C-16.415 -0.666 -9.307 -3.948 0 0 Z M3 2.5 C5.636 3.467 6.779 4.086 8.121 6.6 C9.205 10.177 9.25 13.509 9.195 17.207 C9.192 17.932 9.19 18.658 9.187 19.405 C9.176 21.708 9.151 24.01 9.125 26.312 C9.115 27.88 9.106 29.447 9.098 31.014 C9.076 34.843 9.041 38.671 9 42.5 C7.02 42.5 5.04 42.5 3 42.5 C3 40.85 3 39.2 3 37.5 C3.33 38.82 3.66 40.14 4 41.5 C5.32 41.5 6.64 41.5 8 41.5 C7.931 37.194 7.843 32.89 7.738 28.585 C7.704 27.123 7.676 25.66 7.654 24.197 C7.62 22.087 7.567 19.977 7.512 17.867 C7.486 16.6 7.459 15.333 7.432 14.027 C6.968 10.239 5.889 7.788 4 4.5 C3.67 3.84 3.34 3.18 3 2.5 Z " fill="#17231A" transform="translate(752,99.5)"/>
<path d="M0 0 C0.994 0.009 1.988 0.018 3.012 0.027 C4.151 0.045 4.151 0.045 5.312 0.062 C5.312 0.393 5.312 0.722 5.312 1.062 C2.673 1.062 0.033 1.062 -2.688 1.062 C-1.879 3.243 -1.879 3.243 0.273 3.809 C1.877 4.268 3.481 4.726 5.086 5.184 C7.463 6.122 8.658 7.146 10.312 9.062 C9.983 10.053 9.652 11.042 9.312 12.062 C8.652 11.238 7.993 10.412 7.312 9.562 C3.936 6.749 2.493 6.314 -1.75 6.555 C-4.989 7.404 -6.657 9.525 -8.688 12.062 C-11.125 11.312 -11.125 11.312 -13.688 10.062 C-14.5 7.938 -14.5 7.938 -14.688 6.062 C-9.628 1.678 -6.892 -0.081 0 0 Z M5.312 1.062 C8.259 1.2 10.514 1.361 12.789 3.359 C16.979 8.309 17.457 12.126 17.41 18.355 C17.409 19.061 17.407 19.768 17.406 20.495 C17.4 22.747 17.388 24.998 17.375 27.25 C17.37 28.778 17.365 30.306 17.361 31.834 C17.35 35.577 17.333 39.32 17.312 43.062 C15.002 43.062 12.692 43.062 10.312 43.062 C10.312 42.733 10.312 42.403 10.312 42.062 C11.962 42.062 13.613 42.062 15.312 42.062 C15.268 37.454 15.198 32.846 15.105 28.238 C15.077 26.672 15.056 25.105 15.042 23.539 C15.02 21.282 14.973 19.026 14.922 16.77 C14.921 16.074 14.919 15.377 14.918 14.66 C14.775 9.881 13.713 7.409 10.312 4.062 C7.694 2.73 7.694 2.73 5.312 2.062 C5.312 1.732 5.312 1.403 5.312 1.062 Z M-1.688 2.062 C0.312 3.062 0.312 3.062 0.312 3.062 Z " fill="#243028" transform="translate(480.6875,181.9375)"/>
<path d="M0 0 C1.858 0.09 3.712 0.246 5.562 0.438 C7.08 0.59 7.08 0.59 8.629 0.746 C9.803 0.872 9.803 0.872 11 1 C10.27 2.969 10.27 2.969 9 5 C7.012 5.469 7.012 5.469 4.688 5.5 C0.34 5.795 -1.971 6.678 -5 10 C-5 10.99 -5 11.98 -5 13 C-5.66 13 -6.32 13 -7 13 C-7.788 16.535 -8.175 19.902 -8.316 23.52 C-8.358 24.541 -8.4 25.563 -8.443 26.615 C-8.502 28.198 -8.502 28.198 -8.562 29.812 C-8.606 30.887 -8.649 31.961 -8.693 33.068 C-8.799 35.712 -8.901 38.356 -9 41 C-9.66 41 -10.32 41 -11 41 C-11 28.13 -11 15.26 -11 2 C-10.01 2 -9.02 2 -8 2 C-8 2.99 -8 3.98 -8 5 C-6.866 4.361 -5.731 3.721 -4.562 3.062 C-3.924 2.703 -3.286 2.343 -2.629 1.973 C-1.021 1.103 -1.021 1.103 0 0 Z M11 2 C11.66 2 12.32 2 13 2 C12.67 2.66 12.34 3.32 12 4 C11.67 3.34 11.34 2.68 11 2 Z M16 10 C16.66 10.66 17.32 11.32 18 12 C17.34 12 16.68 12 16 12 C16 11.34 16 10.68 16 10 Z " fill="#2F3E35" transform="translate(554,99)"/>
<path d="M0 0 C9.57 0 19.14 0 29 0 C27.902 6.589 27.345 7.551 23 12 C22.01 12.33 21.02 12.66 20 13 C19.34 12.34 18.68 11.68 18 11 C18.309 10.402 18.619 9.804 18.938 9.188 C20.102 6.91 20.102 6.91 21 4 C14.07 4 7.14 4 0 4 C0 2.68 0 1.36 0 0 Z M17 12 C17.99 12.66 18.98 13.32 20 14 C20 14.66 20 15.32 20 16 C18.02 16.99 18.02 16.99 16 18 C15.67 17.01 15.34 16.02 15 15 C15.66 14.01 16.32 13.02 17 12 Z M14 16 C14.33 17.32 14.66 18.64 15 20 C14.01 20 13.02 20 12 20 C12 19.01 12 18.02 12 17 C12.66 16.67 13.32 16.34 14 16 Z " fill="#324037" transform="translate(837,184)"/>
<path d="M0 0 C0.91 0.102 1.82 0.204 2.758 0.309 C3.456 0.392 4.155 0.476 4.875 0.562 C4.545 1.553 4.215 2.542 3.875 3.562 C2.967 3.851 2.06 4.14 1.125 4.438 C-2.304 5.36 -2.304 5.36 -4.75 8.188 C-5.926 9.363 -5.926 9.363 -7.125 10.562 C-11.125 10.562 -11.125 10.562 -14.125 8.562 C-11.57 2.059 -6.652 -0.768 0 0 Z M4.875 1.562 C6.875 2.562 6.875 2.562 6.875 2.562 Z M5.875 3.562 C7.36 4.553 7.36 4.553 8.875 5.562 C7.555 5.893 6.235 6.222 4.875 6.562 C5.205 5.572 5.535 4.583 5.875 3.562 Z M7.875 6.562 C10.875 7.562 10.875 7.562 12.062 9.75 C12.966 12.878 13.157 15.322 12.875 18.562 C11.885 20.048 11.885 20.048 10.875 21.562 C8.598 21.961 8.598 21.961 5.938 21.938 C4.625 21.949 4.625 21.949 3.285 21.961 C0.482 21.497 -0.416 20.785 -2.125 18.562 C-2.125 18.232 -2.125 17.903 -2.125 17.562 C2.495 17.562 7.115 17.562 11.875 17.562 C11.401 16.119 10.926 14.675 10.438 13.188 C10.171 12.375 9.904 11.563 9.629 10.727 C8.923 8.552 8.923 8.552 7.875 6.562 Z M-3.125 20.562 C-2.465 20.562 -1.805 20.562 -1.125 20.562 C-1.125 21.222 -1.125 21.882 -1.125 22.562 C-1.785 22.562 -2.445 22.562 -3.125 22.562 C-3.125 21.903 -3.125 21.243 -3.125 20.562 Z " fill="#38463D" transform="translate(756.125,182.4375)"/>
<path d="M0 0 C0.33 0 0.66 0 1 0 C1 18.48 1 36.96 1 56 C4.465 55.505 4.465 55.505 8 55 C7.67 54.34 7.34 53.68 7 53 C15.25 53 23.5 53 32 53 C32 54.32 32 55.64 32 57 C21.44 57 10.88 57 0 57 C0 38.19 0 19.38 0 0 Z " fill="#39473E" transform="translate(531,167)"/>
<path d="M0 0 C0.99 0 1.98 0 3 0 C3 17.16 3 34.32 3 52 C11.58 52 20.16 52 29 52 C29 54.31 29 56.62 29 59 C28.67 59 28.34 59 28 59 C28 57.02 28 55.04 28 53 C18.76 53.33 9.52 53.66 0 54 C0 36.18 0 18.36 0 0 Z M-2 54 C0 55 0 55 0 55 Z " fill="#48554C" transform="translate(429,166)"/>
<path d="M0 0 C-0.33 0.99 -0.66 1.98 -1 3 C-0.34 3.66 0.32 4.32 1 5 C0.361 5.289 -0.279 5.578 -0.938 5.875 C-3.152 6.828 -3.152 6.828 -4 9 C-4.069 10.373 -4.085 11.75 -4.062 13.125 C-4.042 14.404 -4.021 15.683 -4 17 C-4.66 16.67 -5.32 16.34 -6 16 C-6 15.34 -6 14.68 -6 14 C-6.66 14 -7.32 14 -8 14 C-8 14.66 -8 15.32 -8 16 C-8.66 15.67 -9.32 15.34 -10 15 C-10 12.69 -10 10.38 -10 8 C-10.99 8.495 -10.99 8.495 -12 9 C-11.875 6.75 -11.875 6.75 -11 4 C-7.35 0.93 -4.805 -0.565 0 0 Z M-13 10 C-12.01 10.495 -12.01 10.495 -11 11 C-10.876 12.093 -10.753 13.186 -10.625 14.312 C-9.929 18.417 -9.185 19.471 -6 22 C-5.01 22.66 -4.02 23.32 -3 24 C-5.925 23.675 -7.787 23.142 -10.25 21.5 C-12.781 17.884 -12.815 14.328 -13 10 Z M-4 17 C1.445 17.99 1.445 17.99 7 19 C7 19.33 7 19.66 7 20 C1.043 20.293 1.043 20.293 -1 20 C-1.99 19.01 -2.98 18.02 -4 17 Z " fill="#1E2B22" transform="translate(626,118)"/>
<path d="M0 0 C2.64 0 5.28 0 8 0 C8 14.19 8 28.38 8 43 C6.35 42.34 4.7 41.68 3 41 C3.33 40.34 3.66 39.68 4 39 C4.087 36.228 4.116 33.482 4.098 30.711 C4.096 29.483 4.096 29.483 4.093 28.231 C4.088 25.612 4.075 22.994 4.062 20.375 C4.057 18.602 4.053 16.828 4.049 15.055 C4.038 10.703 4.021 6.352 4 2 C3.34 2 2.68 2 2 2 C1.67 15.53 1.34 29.06 1 43 C0.67 43 0.34 43 0 43 C0 28.81 0 14.62 0 0 Z " fill="#57705A" transform="translate(708,99)"/>
<path d="M0 0 C3 1 3 1 4 3 C4.38 6.496 4.471 8.321 2.438 11.25 C-0.573 13.412 -3.411 14.172 -7 15 C-5.048 16.952 -3.468 17.848 -1 19 C-8.257 19.472 -13.096 19.458 -19 15 C-23 10.692 -23 10.692 -23 8 C-21.02 7.01 -19.04 6.02 -17 5 C-16.423 5.784 -15.845 6.567 -15.25 7.375 C-12.243 10.883 -10.589 11.868 -6 12.25 C-2.164 11.954 -2.164 11.954 1 10 C1.995 6.729 2.329 4.833 1.062 1.625 C0.712 1.089 0.361 0.552 0 0 Z M-13 15 C-13 15.66 -13 16.32 -13 17 C-12.34 17 -11.68 17 -11 17 C-11 16.34 -11 15.68 -11 15 C-11.66 15 -12.32 15 -13 15 Z " fill="#2C3A30" transform="translate(793,124)"/>
<path d="M0 0 C0.474 0.763 0.949 1.526 1.438 2.312 C4.425 5.446 6.549 6.072 10.605 7.242 C14.302 8.412 17.575 10.194 21 12 C20.361 12.124 19.721 12.248 19.062 12.375 C18.382 12.581 17.701 12.787 17 13 C16.67 13.66 16.34 14.32 16 15 C16.495 15.371 16.99 15.743 17.5 16.125 C19 18 19 18 19.438 20.938 C18.913 24.611 17.828 25.702 15 28 C14.67 27.34 14.34 26.68 14 26 C14.495 25.629 14.99 25.257 15.5 24.875 C17.598 22.253 17.217 20.262 17 17 C16.299 16.83 15.597 16.66 14.875 16.484 C0.92 12.92 0.92 12.92 -4 8 C-3.67 7.01 -3.34 6.02 -3 5 C-1.35 6.65 0.3 8.3 2 10 C2.99 9.67 3.98 9.34 5 9 C3.763 8.165 3.763 8.165 2.5 7.312 C0 5 0 5 -0.312 2.25 C-0.209 1.507 -0.106 0.765 0 0 Z M3 8 C3.33 8.66 3.66 9.32 4 10 C3.34 9.67 2.68 9.34 2 9 C2.33 8.67 2.66 8.34 3 8 Z " fill="#2D3C31" transform="translate(579,192)"/>
<path d="M0 0 C2.579 1.382 4.565 2.866 6.359 5.184 C6.995 7.807 6.575 9.67 5.859 12.246 C3.422 11.496 3.422 11.496 0.859 10.246 C0.047 8.121 0.047 8.121 -0.141 6.246 C-0.801 6.246 -1.461 6.246 -2.141 6.246 C-2.471 5.586 -2.801 4.926 -3.141 4.246 C-6.973 3.288 -9.221 2.797 -12.828 4.559 C-13.591 5.115 -14.354 5.672 -15.141 6.246 C-17.328 7.496 -17.328 7.496 -19.141 8.246 C-19.801 7.916 -20.461 7.586 -21.141 7.246 C-21.141 6.256 -21.141 5.266 -21.141 4.246 C-14.8 -0.544 -7.776 -2.739 0 0 Z " fill="#2D3C33" transform="translate(899.140625,183.75390625)"/>
<path d="M0 0 C1 2 1 2 0.375 4.938 C-1.278 8.62 -2.412 9.281 -6 11 C-11.539 11.818 -16.425 11.969 -21.25 9 C-21.827 8.34 -22.405 7.68 -23 7 C-22.67 6.34 -22.34 5.68 -22 5 C-20.515 5.99 -20.515 5.99 -19 7 C-18.34 5.68 -17.68 4.36 -17 3 C-16.484 3.165 -15.969 3.33 -15.438 3.5 C-10.389 4.536 -7.091 4.634 -2.562 2 C-1.717 1.34 -0.871 0.68 0 0 Z " fill="#28352C" transform="translate(489,215)"/>
<path d="M0 0 C0.454 0.763 0.908 1.526 1.375 2.312 C5.039 6.064 8.993 6.825 14 8 C14.33 9.98 14.66 11.96 15 14 C8.069 14.502 3.632 14.253 -2 10 C-5 5.935 -5 5.935 -5 3 C-2.5 1.375 -2.5 1.375 0 0 Z M15 10 C17 11 17 11 17 11 Z " fill="#29372D" transform="translate(577,212)"/>
<path d="M0 0 C0.66 0.33 1.32 0.66 2 1 C1.505 1.371 1.01 1.743 0.5 2.125 C-1.258 3.999 -1.258 3.999 -1.438 7 C-1.265 10.014 -1.265 10.014 0.562 11.875 C4.917 13.885 9.498 13.441 14 12 C12.067 14.025 10.368 15.421 8 17 C9.65 17 11.3 17 13 17 C12 19 12 19 10.211 19.605 C4.974 20.54 0.013 21.075 -4.562 18 C-5.367 17.34 -6.171 16.68 -7 16 C-5.25 12.125 -5.25 12.125 -3 11 C-3.206 10.443 -3.413 9.886 -3.625 9.312 C-4.115 6.292 -3.353 4.706 -2 2 C-1.34 1.34 -0.68 0.68 0 0 Z M-2 12 C-1 14 -1 14 -1 14 Z M17 7 C17 7.99 17 8.98 17 10 C16.01 10.495 16.01 10.495 15 11 C15.66 9.68 16.32 8.36 17 7 Z M15 14 C15.66 14.33 16.32 14.66 17 15 C15.02 15.99 15.02 15.99 13 17 C13.66 16.01 14.32 15.02 15 14 Z " fill="#1F2C23" transform="translate(750,206)"/>
<path d="M0 0 C1.32 0.99 2.64 1.98 4 3 C3.769 6.117 2.731 7.319 0.688 9.75 C-3.235 12.852 -7.385 12.475 -12.195 12.371 C-14.917 12.011 -16.661 11.394 -19 10 C-15.201 6.324 -12.165 5.489 -7.16 4.57 C-4.135 3.772 -2.22 2.148 0 0 Z M-19 7 C-17 8 -17 8 -17 8 Z M-23 8 C-21 9 -21 9 -21 9 Z M-21 9 C-19 10 -19 10 -19 10 Z " fill="#2D3B31" transform="translate(697,213)"/>
<path d="M0 0 C7.429 -0.286 7.429 -0.286 11 2 C10.67 2.66 10.34 3.32 10 4 C10.66 4.33 11.32 4.66 12 5 C11.67 5.99 11.34 6.98 11 8 C9.975 7.977 8.95 7.954 7.895 7.93 C6.534 7.911 5.173 7.893 3.812 7.875 C3.139 7.858 2.465 7.841 1.771 7.824 C-2.288 7.785 -5.35 8.2 -9 10 C-8.313 7.251 -7.644 5.466 -5.309 3.777 C-3.569 2.797 -1.786 1.893 0 1 C0 0.67 0 0.34 0 0 Z M12 5 C12.66 5 13.32 5 14 5 C13.67 5.66 13.34 6.32 13 7 C12.67 6.34 12.34 5.68 12 5 Z M14 8 C14.66 8 15.32 8 16 8 C15.67 8.66 15.34 9.32 15 10 C14.67 9.34 14.34 8.68 14 8 Z M12 9 C12.99 9.495 12.99 9.495 14 10 C13.01 10.495 13.01 10.495 12 11 C12 10.34 12 9.68 12 9 Z " fill="#303F35" transform="translate(584,98)"/>
<path d="M0 0 C1.118 3.355 0.915 3.971 -0.312 7.125 C-0.577 7.829 -0.841 8.533 -1.113 9.258 C-2 11 -2 11 -4 12 C-7.601 12.318 -11.203 12.512 -14.812 12.719 C-17.894 12.794 -17.894 12.794 -20 14 C-20.619 14.144 -21.238 14.289 -21.875 14.438 C-24.111 15.029 -25.966 15.91 -28 17 C-27.67 16.01 -27.34 15.02 -27 14 C-27.66 13.67 -28.32 13.34 -29 13 C-28.01 12.361 -27.02 11.721 -26 11.062 C-25.01 10.382 -24.02 9.701 -23 9 C-23 8.67 -23 8.34 -23 8 C-17.06 8 -11.12 8 -5 8 C-4.34 6.35 -3.68 4.7 -3 3 C-2.01 2.67 -1.02 2.34 0 2 C0 1.34 0 0.68 0 0 Z M-5 2 C-3 3 -3 3 -3 3 Z " fill="#36443B" transform="translate(496,109)"/>
<path d="M0 0 C2.778 1.016 3.864 1.864 6 4 C6 4.99 6 5.98 6 7 C4.188 7.688 4.188 7.688 2 8 C0.375 6.625 0.375 6.625 -1 5 C-4.064 3.468 -6.617 3.771 -10 4 C-12.874 5.173 -12.874 5.173 -15 7 C-15.33 7.99 -15.66 8.98 -16 10 C-17.32 9.01 -18.64 8.02 -20 7 C-16.734 -1.611 -7.796 -0.899 0 0 Z " fill="#344239" transform="translate(487,100)"/>
<path d="M0 0 C0.66 0.33 1.32 0.66 2 1 C0.68 3.31 -0.64 5.62 -2 8 C-2.33 7.01 -2.66 6.02 -3 5 C-1.562 2.312 -1.562 2.312 0 0 Z M18 6 C18.33 6.99 18.66 7.98 19 9 C18.518 9.41 18.036 9.82 17.539 10.242 C16.907 10.781 16.276 11.32 15.625 11.875 C14.999 12.409 14.372 12.942 13.727 13.492 C12.442 14.614 11.206 15.794 10 17 C11.65 16.67 13.3 16.34 15 16 C12.633 18.475 11.217 19.912 7.688 20.168 C6.801 20.174 5.914 20.181 5 20.188 C3.67 20.209 3.67 20.209 2.312 20.23 C0 20 0 20 -2 18 C-0.68 18 0.64 18 2 18 C2.33 17.01 2.66 16.02 3 15 C1.35 13.68 -0.3 12.36 -2 11 C-1.67 10.01 -1.34 9.02 -1 8 C-0.361 8.846 0.279 9.691 0.938 10.562 C4.152 13.121 4.649 13.406 8.5 13.188 C12.022 12.599 13.773 11.677 16.062 8.938 C16.702 7.968 17.341 6.999 18 6 Z M-8 10 C-5.88 12.615 -3.869 15.196 -2 18 C-4.468 16.848 -6.048 15.952 -8 14 C-8 12.68 -8 11.36 -8 10 Z M16 14 C16.33 14.66 16.66 15.32 17 16 C16.34 15.67 15.68 15.34 15 15 C15.33 14.67 15.66 14.34 16 14 Z " fill="#1D2A20" transform="translate(736,123)"/>
<path d="M0 0 C2.5 1.312 2.5 1.312 5 3 C5 6 5 6 2.5 8.688 C1.675 9.451 0.85 10.214 0 11 C-0.99 10.67 -1.98 10.34 -3 10 C-7.086 8.813 -10.763 8.851 -15 9 C-15 8.67 -15 8.34 -15 8 C-14.336 7.841 -13.672 7.683 -12.988 7.52 C-7.228 5.997 -3.776 4.657 0 0 Z M-2 8 C-1 10 -1 10 -1 10 Z M-7 9 C-4.525 9.99 -4.525 9.99 -2 11 C-2.33 11.66 -2.66 12.32 -3 13 C-6.015 14.005 -8.042 14.103 -11.188 14.062 C-12.539 14.049 -12.539 14.049 -13.918 14.035 C-14.605 14.024 -15.292 14.012 -16 14 C-16 13.67 -16 13.34 -16 13 C-13.69 13 -11.38 13 -9 13 C-8.34 11.68 -7.68 10.36 -7 9 Z " fill="#233027" transform="translate(692,129)"/>
<path d="M0 0 C5.299 -0.505 7.907 0.635 12 4 C15.213 8.166 15.403 11.845 15.293 16.926 C15.289 17.673 15.284 18.421 15.28 19.191 C15.263 21.565 15.226 23.939 15.188 26.312 C15.172 27.928 15.159 29.543 15.146 31.158 C15.114 35.106 15.062 39.053 15 43 C13.02 43 11.04 43 9 43 C9 42.67 9 42.34 9 42 C10.65 42 12.3 42 14 42 C13.906 37.676 13.8 33.353 13.683 29.03 C13.644 27.561 13.61 26.091 13.578 24.622 C13.532 22.504 13.474 20.387 13.414 18.27 C13.367 16.361 13.367 16.361 13.319 14.413 C13.018 11.191 12.382 8.902 11 6 C10.01 6.33 9.02 6.66 8 7 C8.33 8.32 8.66 9.64 9 11 C8.34 11 7.68 11 7 11 C6.165 10.072 6.165 10.072 5.312 9.125 C2.412 6.46 -0.208 5.875 -4 5 C-4 4.67 -4 4.34 -4 4 C-2.02 4 -0.04 4 2 4 C2 3.34 2 2.68 2 2 C1.34 1.34 0.68 0.68 0 0 Z M5 5 C5.66 5.66 6.32 6.32 7 7 C7 6.34 7 5.68 7 5 C6.34 5 5.68 5 5 5 Z " fill="#162219" transform="translate(632,99)"/>
<path d="M0 0 C2.25 2.438 2.25 2.438 4 5 C4.33 5.33 4.66 5.66 5 6 C5.073 8.353 5.084 10.708 5.062 13.062 C5.053 14.353 5.044 15.643 5.035 16.973 C5.024 17.972 5.012 18.971 5 20 C3.35 20 1.7 20 0 20 C-0.33 18.68 -0.66 17.36 -1 16 C-1.66 16.33 -2.32 16.66 -3 17 C-2.867 16.42 -2.734 15.84 -2.598 15.242 C-1.603 10.842 -0.686 6.461 0 2 C-3.3 2 -6.6 2 -10 2 C-10 1.67 -10 1.34 -10 1 C-3.362 -0.517 -3.362 -0.517 0 0 Z " fill="#2C3A31" transform="translate(491,204)"/>
<path d="M0 0 C6.053 -0.323 10.78 -0.523 16 3 C16.99 4.485 16.99 4.485 18 6 C16.02 5.34 14.04 4.68 12 4 C11.633 4.481 11.265 4.962 10.887 5.457 C8.252 7.612 6.175 7.507 2.812 7.688 C1.726 7.753 0.639 7.819 -0.48 7.887 C-1.728 7.943 -1.728 7.943 -3 8 C-2.67 7.34 -2.34 6.68 -2 6 C-1.01 6 -0.02 6 1 6 C1.681 4.108 1.681 4.108 2 2 C1.34 1.34 0.68 0.68 0 0 Z M0 2 C2 3 2 3 2 3 Z M10 6 C11.485 6.99 11.485 6.99 13 8 C12.67 8.66 12.34 9.32 12 10 C11.01 9.01 10.02 8.02 9 7 C9.33 6.67 9.66 6.34 10 6 Z M18 6 C19.485 6.99 19.485 6.99 21 8 C20.67 8.66 20.34 9.32 20 10 C19.34 8.68 18.68 7.36 18 6 Z M13 10 C13.66 10 14.32 10 15 10 C15.33 11.32 15.66 12.64 16 14 C14.979 13.021 13.979 12.02 13 11 C13 10.67 13 10.34 13 10 Z " fill="#222E25" transform="translate(631,182)"/>
<path d="M0 0 C0 2.31 0 4.62 0 7 C-10.89 7 -21.78 7 -33 7 C-33 6.67 -33 6.34 -33 6 C-22.44 6 -11.88 6 -1 6 C-1 4.68 -1 3.36 -1 2 C-1.33 2.99 -1.66 3.98 -2 5 C-8.27 5 -14.54 5 -21 5 C-21.66 3.68 -22.32 2.36 -23 1 C-19.354 0.833 -15.708 0.666 -12.062 0.5 C-11.022 0.452 -9.981 0.405 -8.908 0.355 C-7.919 0.31 -6.929 0.265 -5.91 0.219 C-4.994 0.177 -4.077 0.135 -3.133 0.092 C-1 0 -1 0 0 0 Z M-24 4 C-22 5 -22 5 -22 5 Z " fill="#1B271E" transform="translate(867,218)"/>
<path d="M0 0 C0.33 0 0.66 0 1 0 C1 9.24 1 18.48 1 28 C-0.32 28 -1.64 28 -3 28 C-3 20.08 -3 12.16 -3 4 C-2.34 3.67 -1.68 3.34 -1 3 C-0.67 2.01 -0.34 1.02 0 0 Z " fill="#344239" transform="translate(573,113)"/>
<path d="M0 0 C2 1 2 1 2 1 Z M2 1 C2.66 1 3.32 1 4 1 C3.67 1.66 3.34 2.32 3 3 C2.67 2.34 2.34 1.68 2 1 Z M6 1 C7.32 1.66 8.64 2.32 10 3 C9.67 5.64 9.34 8.28 9 11 C7.68 11 6.36 11 5 11 C4.973 9.521 4.954 8.042 4.938 6.562 C4.926 5.739 4.914 4.915 4.902 4.066 C5 2 5 2 6 1 Z M10 7 C10.33 7 10.66 7 11 7 C11 10.63 11 14.26 11 18 C8.562 14.343 8.761 12.31 9 8 C9.33 7.67 9.66 7.34 10 7 Z M-11 14 C-8.36 14.33 -5.72 14.66 -3 15 C-3 15.66 -3 16.32 -3 17 C-0.03 17 2.94 17 6 17 C6 17.33 6 17.66 6 18 C5.157 18.061 4.314 18.121 3.445 18.184 C2.35 18.267 1.254 18.351 0.125 18.438 C-1.511 18.559 -1.511 18.559 -3.18 18.684 C-5.947 18.83 -5.947 18.83 -8 20 C-8.99 19.34 -9.98 18.68 -11 18 C-10.34 17.01 -9.68 16.02 -9 15 C-9.66 14.67 -10.32 14.34 -11 14 Z M7 19 C7.66 19 8.32 19 9 19 C8.67 19.99 8.34 20.98 8 22 C7.67 21.01 7.34 20.02 7 19 Z " fill="#39473E" transform="translate(635,103)"/>
<path d="M0 0 C0.33 0.99 0.66 1.98 1 3 C-0.438 5.625 -0.438 5.625 -2 8 C-2.075 9.224 -2.075 9.224 -1 11 C-6.973 14.475 -11.115 15.574 -18 15 C-18.33 14.34 -18.66 13.68 -19 13 C-17.35 13 -15.7 13 -14 13 C-13.774 10.876 -13.774 10.876 -15.5 9.375 C-15.995 8.921 -16.49 8.468 -17 8 C-16.112 8.052 -16.112 8.052 -15.207 8.105 C-10.303 8.273 -6.904 8.33 -3 5 C-1.192 2.434 -1.192 2.434 0 0 Z M-1 8 C1 9 1 9 1 9 Z M1 9 C1.33 10.32 1.66 11.64 2 13 C3.32 13 4.64 13 6 13 C6.33 12.01 6.66 11.02 7 10 C7 11.32 7 12.64 7 14 C5.02 14 3.04 14 1 14 C1 12.35 1 10.7 1 9 Z " fill="#1A261E" transform="translate(490,128)"/>
<path d="M0 0 C2 1 2 1 2 1 Z M3 2 C7.216 3.745 8.376 5.809 10.246 9.828 C11.335 12.964 11.334 15.724 11 19 C10 20 10 20 7.683 20.114 C6.683 20.108 5.683 20.103 4.652 20.098 C3.573 20.094 2.493 20.091 1.381 20.088 C0.245 20.08 -0.892 20.071 -2.062 20.062 C-3.203 20.058 -4.343 20.053 -5.518 20.049 C-8.345 20.037 -11.173 20.021 -14 20 C-14 19.34 -14 18.68 -14 18 C-12.724 17.951 -11.448 17.902 -10.133 17.852 C-8.464 17.777 -6.794 17.701 -5.125 17.625 C-4.283 17.594 -3.441 17.563 -2.574 17.531 C-1.769 17.493 -0.963 17.454 -0.133 17.414 C0.611 17.383 1.354 17.351 2.121 17.319 C4.24 17.146 4.24 17.146 6 15 C6.99 15 7.98 15 9 15 C6.997 7.995 6.997 7.995 3 2 Z " fill="#27362C" transform="translate(692,184)"/>
<path d="M0 0 C0.33 0 0.66 0 1 0 C1 5.94 1 11.88 1 18 C0.01 18 -0.98 18 -2 18 C-2.66 16.35 -3.32 14.7 -4 13 C-8.62 12.34 -13.24 11.68 -18 11 C-18 10.67 -18 10.34 -18 10 C-13.38 9.67 -8.76 9.34 -4 9 C-3.34 7.02 -2.68 5.04 -2 3 C-1.34 2.01 -0.68 1.02 0 0 Z " fill="#334239" transform="translate(495,192)"/>
<path d="M0 0 C0.33 0 0.66 0 1 0 C1 6.6 1 13.2 1 20 C10.24 20 19.48 20 29 20 C29 21.98 29 23.96 29 26 C28.34 26 27.68 26 27 26 C27 24.68 27 23.36 27 22 C25.826 22.008 25.826 22.008 24.629 22.016 C21.107 22.037 17.585 22.05 14.062 22.062 C12.831 22.071 11.599 22.079 10.33 22.088 C9.16 22.091 7.99 22.094 6.785 22.098 C5.159 22.106 5.159 22.106 3.5 22.114 C1 22 1 22 0 21 C-0.087 19.438 -0.107 17.873 -0.098 16.309 C-0.094 15.364 -0.091 14.42 -0.088 13.447 C-0.08 12.454 -0.071 11.461 -0.062 10.438 C-0.058 9.44 -0.053 8.443 -0.049 7.416 C-0.037 4.944 -0.021 2.472 0 0 Z " fill="#202C23" transform="translate(536,198)"/>
<path d="M0 0 C3.63 0 7.26 0 11 0 C10.34 1.65 9.68 3.3 9 5 C6.133 4.427 5.139 4.139 3 2 C2.01 1.34 1.02 0.68 0 0 Z M12 1 C14.21 2.105 15.763 3.442 17.625 5.062 C18.257 5.61 18.888 6.158 19.539 6.723 C20.262 7.355 20.262 7.355 21 8 C20.34 9.32 19.68 10.64 19 12 C17 12 17 12 15.125 10.188 C14.424 9.466 13.722 8.744 13 8 C11.684 6.977 10.356 5.969 9 5 C9.99 3.68 10.98 2.36 12 1 Z " fill="#38463D" transform="translate(674,98)"/>
<path d="M0 0 C1.65 0 3.3 0 5 0 C5 0.66 5 1.32 5 2 C7.64 2 10.28 2 13 2 C12.289 3.953 12.289 3.953 11 6 C8.836 6.609 8.836 6.609 6.375 6.75 C5.558 6.807 4.74 6.863 3.898 6.922 C3.272 6.948 2.645 6.973 2 7 C2 6.34 2 5.68 2 5 C1.34 5 0.68 5 0 5 C0 3.35 0 1.7 0 0 Z M-5 1 C-3.515 1.99 -3.515 1.99 -2 3 C-2.99 3.33 -3.98 3.66 -5 4 C-5 3.01 -5 2.02 -5 1 Z M13 1 C15 2 15 2 15 2 Z M16 3 C18 4 18 4 18 4 Z M12 4 C15 5 15 5 15 5 Z " fill="#38463D" transform="translate(672,136)"/>
<path d="M0 0 C1.32 0.33 2.64 0.66 4 1 C3.67 8.92 3.34 16.84 3 25 C2.01 24.34 1.02 23.68 0 23 C0.66 23 1.32 23 2 23 C1.887 20.854 1.759 18.708 1.625 16.562 C1.555 15.368 1.486 14.173 1.414 12.941 C1.277 11.971 1.141 11 1 10 C0.34 9.67 -0.32 9.34 -1 9 C-1 12.63 -1 16.26 -1 20 C-1.33 20 -1.66 20 -2 20 C-2.054 17.041 -2.094 14.084 -2.125 11.125 C-2.142 10.283 -2.159 9.441 -2.176 8.574 C-2.182 7.769 -2.189 6.963 -2.195 6.133 C-2.206 5.389 -2.216 4.646 -2.227 3.879 C-2 2 -2 2 0 0 Z M-2 21 C-1.01 21.495 -1.01 21.495 0 22 C0 22.99 0 23.98 0 25 C-0.66 25 -1.32 25 -2 25 C-2 23.68 -2 22.36 -2 21 Z " fill="#36443B" transform="translate(427,86)"/>
<path d="M0 0 C2.97 0 5.94 0 9 0 C6.238 2.762 3.793 2.579 0 3 C0 2.01 0 1.02 0 0 Z M-3 3 C-2.01 3.33 -1.02 3.66 0 4 C-1.32 4.33 -2.64 4.66 -4 5 C-3.67 4.34 -3.34 3.68 -3 3 Z M9 3 C14.492 3.61 14.492 3.61 16.875 5.438 C18 7 18 7 18 9 C16.312 9.812 16.312 9.812 14 10 C11.25 7.688 11.25 7.688 9 5 C9 4.34 9 3.68 9 3 Z M0 4 C2.97 4 5.94 4 9 4 C9 4.33 9 4.66 9 5 C4.545 5.495 4.545 5.495 0 6 C0 5.34 0 4.68 0 4 Z M-6 9 C-4 10 -4 10 -4 10 Z " fill="#39473E" transform="translate(782,98)"/>
<path d="M0 0 C0 2 0 4 0 6 C-3.96 6.66 -7.92 7.32 -12 8 C-12.33 6.02 -12.66 4.04 -13 2 C-8.71 1.34 -4.42 0.68 0 0 Z M-15 2 C-14.34 2.99 -13.68 3.98 -13 5 C-14.32 4.67 -15.64 4.34 -17 4 C-16.34 3.34 -15.68 2.68 -15 2 Z " fill="#334138" transform="translate(642,218)"/>
<path d="M0 0 C0.33 1.32 0.66 2.64 1 4 C1.66 3.67 2.32 3.34 3 3 C5 2.96 7 2.957 9 3 C9 3.33 9 3.66 9 4 C14.94 4.33 20.88 4.66 27 5 C27 5.66 27 6.32 27 7 C17.43 7 7.86 7 -2 7 C-2 5.35 -2 3.7 -2 2 C-1.34 2 -0.68 2 0 2 C0 1.34 0 0.68 0 0 Z " fill="#2C3B32" transform="translate(428,216)"/>
<path d="M0 0 C0.66 0.33 1.32 0.66 2 1 C2 1.66 2 2.32 2 3 C1.34 3 0.68 3 0 3 C-0.289 3.639 -0.577 4.279 -0.875 4.938 C-2 7 -2 7 -4 8 C-2.875 5.028 -1.777 2.666 0 0 Z M-5 8 C-4.34 8.66 -3.68 9.32 -3 10 C-3.99 10.33 -4.98 10.66 -6 11 C-5.67 10.01 -5.34 9.02 -5 8 Z M-8 12 C-7.34 12.66 -6.68 13.32 -6 14 C-6.99 14 -7.98 14 -9 14 C-8.67 13.34 -8.34 12.68 -8 12 Z M-16 19 C-15.34 19.33 -14.68 19.66 -14 20 C-14.99 20.99 -15.98 21.98 -17 23 C-17.66 22.67 -18.32 22.34 -19 22 C-18.01 21.01 -17.02 20.02 -16 19 Z M-19 23 C-19 23.66 -19 24.32 -19 25 C-19.639 25.124 -20.279 25.248 -20.938 25.375 C-21.618 25.581 -22.299 25.787 -23 26 C-23.33 26.66 -23.66 27.32 -24 28 C-26.562 28.625 -26.562 28.625 -29 29 C-26.356 26.077 -23.106 23 -19 23 Z M-32 29 C-31.01 29.33 -30.02 29.66 -29 30 C-30.65 30.33 -32.3 30.66 -34 31 C-33.34 30.34 -32.68 29.68 -32 29 Z M-38 31 C-34 32 -34 32 -34 32 Z " fill="#E7F2E7" transform="translate(330,113)"/>
<path d="M0 0 C4.995 0.476 8.028 1.952 12 5 C13.866 8.732 13.554 12.936 13 17 C11.653 19.801 10.433 20.892 8 23 C5.188 23.875 5.188 23.875 3 24 C3.784 23.381 4.567 22.762 5.375 22.125 C8.876 19.524 8.876 19.524 10.484 15.723 C10.572 14.845 10.66 13.967 10.75 13.062 C10.848 12.187 10.946 11.312 11.047 10.41 C11.211 7.733 11.211 7.733 9 5 C7.039 4.176 7.039 4.176 5 4 C4.01 4.495 4.01 4.495 3 5 C1.5 3.625 1.5 3.625 0 2 C0 1.34 0 0.68 0 0 Z M-6 3 C-1.545 3.99 -1.545 3.99 3 5 C-1.294 6.073 -2.195 5.797 -6 4 C-6 3.67 -6 3.34 -6 3 Z " fill="#1E2B21" transform="translate(790,118)"/>
<path d="M0 0 C8.25 0 16.5 0 25 0 C25 1.32 25 2.64 25 4 C24.01 3.67 23.02 3.34 22 3 C20.446 2.919 18.888 2.892 17.332 2.902 C16.439 2.906 15.547 2.909 14.627 2.912 C13.698 2.92 12.769 2.929 11.812 2.938 C10.402 2.944 10.402 2.944 8.963 2.951 C6.642 2.963 4.321 2.979 2 3 C2 2.34 2 1.68 2 1 C1.34 0.67 0.68 0.34 0 0 Z " fill="#324037" transform="translate(538,220)"/>
<path d="M0 0 C1 3 1 3 -0.438 6.188 C-1.211 7.58 -1.211 7.58 -2 9 C-2.66 8.34 -3.32 7.68 -4 7 C-2.68 4.69 -1.36 2.38 0 0 Z M-5 9 C-4.34 9.33 -3.68 9.66 -3 10 C-3.66 11.32 -4.32 12.64 -5 14 C-5.33 13.34 -5.66 12.68 -6 12 C-5.67 11.01 -5.34 10.02 -5 9 Z M-7 14 C-6.34 14.33 -5.68 14.66 -5 15 C-6.485 18.465 -6.485 18.465 -8 22 C-9.208 18.377 -8.543 17.359 -7 14 Z M-10 22 C-7.814 24.186 -7.31 24.98 -7 28 C-7.996 30.359 -7.996 30.359 -9.438 32.75 C-10.147 33.949 -10.147 33.949 -10.871 35.172 C-11.244 35.775 -11.616 36.378 -12 37 C-13.315 33.341 -12.655 30.92 -11.562 27.25 C-11.275 26.265 -10.988 25.28 -10.691 24.266 C-10.463 23.518 -10.235 22.77 -10 22 Z " fill="#E8F3E8" transform="translate(268,133)"/>
<path d="M0 0 C3 1 3 1 4 3 C4.384 6.535 4.488 8.324 2.375 11.25 C-0.386 13.285 -2.645 14.286 -6 15 C-6.99 14.34 -7.98 13.68 -9 13 C-7.742 12.732 -6.484 12.464 -5.188 12.188 C-2.799 11.573 -1.056 11.034 1.062 9.75 C2.535 7.001 1.748 4.929 1 2 C0.67 1.34 0.34 0.68 0 0 Z M-21 11 C-20.294 11.524 -20.294 11.524 -19.574 12.059 C-18.64 12.741 -18.64 12.741 -17.688 13.438 C-16.765 14.116 -16.765 14.116 -15.824 14.809 C-13.903 16.173 -13.903 16.173 -11 17 C-11 16.34 -11 15.68 -11 15 C-6.704 15.488 -4.338 16.293 -1 19 C-8.212 19.469 -13.145 19.484 -19 15 C-20.438 12.75 -20.438 12.75 -21 11 Z " fill="#19251C" transform="translate(793,124)"/>
<path d="M0 0 C-4 2 -4 2 -8 4 C-7.01 5.485 -7.01 5.485 -6 7 C-5.01 6.01 -4.02 5.02 -3 4 C-2.01 4.33 -1.02 4.66 0 5 C-0.784 5.743 -1.567 6.485 -2.375 7.25 C-4.565 9.544 -5.827 11.122 -7 14 C-7.66 13.01 -8.32 12.02 -9 11 C-11.331 11.959 -11.331 11.959 -13 15 C-13.488 7.802 -13.488 7.802 -11.25 4.125 C-7.527 0.609 -5.126 -0.285 0 0 Z " fill="#1B281F" transform="translate(476,118)"/>
<path d="M0 0 C0 0.66 0 1.32 0 2 C-1.663 3.006 -3.33 4.006 -5 5 C-7.453 8.68 -7.395 10.654 -7 15 C-6.01 15.66 -5.02 16.32 -4 17 C-2.98 17.979 -1.979 18.979 -1 20 C-0.34 20.66 0.32 21.32 1 22 C-2.353 21.713 -4.04 20.972 -6.812 19 C-9.393 15.462 -9.729 13.507 -9.5 9.223 C-8.651 5.449 -6.778 3.646 -4 1 C-2 0 -2 0 0 0 Z M-4 9 C-3.753 9.598 -3.505 10.196 -3.25 10.812 C-0.655 15.355 3.146 16.566 8 18 C4.696 19.124 2.949 18.896 -0.25 17.562 C-0.956 17.275 -1.663 16.988 -2.391 16.691 C-2.922 16.463 -3.453 16.235 -4 16 C-4 13.69 -4 11.38 -4 9 Z " fill="#18241B" transform="translate(782,99)"/>
<path d="M0 0 C0.474 0.66 0.949 1.32 1.438 2 C2.211 2.99 2.211 2.99 3 4 C3.33 4 3.66 4 4 4 C4.33 8.29 4.66 12.58 5 17 C3.02 17 1.04 17 -1 17 C-1.027 15.104 -1.046 13.208 -1.062 11.312 C-1.074 10.257 -1.086 9.201 -1.098 8.113 C-1.009 5.276 -0.649 2.756 0 0 Z " fill="#303F36" transform="translate(715,207)"/>
<path d="M0 0 C0.33 0.66 0.66 1.32 1 2 C1.66 2.33 2.32 2.66 3 3 C3 4.32 3 5.64 3 7 C-0.375 7.125 -0.375 7.125 -4 7 C-4.66 6.34 -5.32 5.68 -6 5 C-4.067 2.975 -2.368 1.579 0 0 Z M3 1 C5.31 1 7.62 1 10 1 C10 1.33 10 1.66 10 2 C7.69 2 5.38 2 3 2 C3 1.67 3 1.34 3 1 Z M14 1 C14.66 1.33 15.32 1.66 16 2 C14.515 2.99 14.515 2.99 13 4 C12.67 3.34 12.34 2.68 12 2 C12.66 1.67 13.32 1.34 14 1 Z M9 4 C11 5 11 5 11 5 Z M-8 7 C-7.34 7.33 -6.68 7.66 -6 8 C-6.33 8.99 -6.66 9.98 -7 11 C-7 10.34 -7 9.68 -7 9 C-7.66 8.67 -8.32 8.34 -9 8 C-8.67 7.67 -8.34 7.34 -8 7 Z M-5 8 C-4.01 8.495 -4.01 8.495 -3 9 C-3.99 9.495 -3.99 9.495 -5 10 C-5 9.34 -5 8.68 -5 8 Z " fill="#36443B" transform="translate(677,182)"/>
<path d="M0 0 C0.99 0.495 0.99 0.495 2 1 C1.67 1.66 1.34 2.32 1 3 C0.67 2.01 0.34 1.02 0 0 Z M-2 1 C-1.67 1.66 -1.34 2.32 -1 3 C-0.01 3.33 0.98 3.66 2 4 C2 5.98 2 7.96 2 10 C-1.019 10 -3.771 9.85 -6.75 9.5 C-7.549 9.407 -8.348 9.314 -9.172 9.219 C-9.775 9.147 -10.378 9.074 -11 9 C-11 8.34 -11 7.68 -11 7 C-12.32 6.67 -13.64 6.34 -15 6 C-10.71 6 -6.42 6 -2 6 C-2 4.35 -2 2.7 -2 1 Z " fill="#233027" transform="translate(643,111)"/>
<path d="M0 0 C3.63 0 7.26 0 11 0 C11 1.32 11 2.64 11 4 C3.41 4 -4.18 4 -12 4 C-12.33 3.34 -12.66 2.68 -13 2 C-8.71 2 -4.42 2 0 2 C0 1.34 0 0.68 0 0 Z " fill="#344239" transform="translate(549,192)"/>
<path d="M0 0 C1.887 0.031 1.887 0.031 3.812 0.062 C3.153 0.722 2.492 1.382 1.812 2.062 C0.822 1.732 -0.168 1.403 -1.188 1.062 C-1.518 2.053 -1.847 3.042 -2.188 4.062 C-4.5 5.625 -4.5 5.625 -7.188 7.062 C-8.27 7.681 -8.27 7.681 -9.375 8.312 C-9.973 8.56 -10.571 8.808 -11.188 9.062 C-11.847 8.732 -12.508 8.403 -13.188 8.062 C-13.188 7.072 -13.188 6.083 -13.188 5.062 C-8.843 1.78 -5.456 -0.089 0 0 Z M-0.188 2.062 C1.812 3.062 1.812 3.062 1.812 3.062 Z M4.812 2.062 C5.143 2.722 5.472 3.382 5.812 4.062 C5.153 3.732 4.492 3.403 3.812 3.062 C4.143 2.732 4.472 2.403 4.812 2.062 Z " fill="#334138" transform="translate(891.1875,182.9375)"/>
<path d="M0 0 C2 1 2 1 2 1 Z M-9 1 C-2.345 0.457 1.458 1.227 7 5 C7 6.32 7 7.64 7 9 C4.237 8.477 1.674 7.891 -1 7 C-1 6.34 -1 5.68 -1 5 C-3.31 4.67 -5.62 4.34 -8 4 C-8.33 3.01 -8.66 2.02 -9 1 Z " fill="#334239" transform="translate(593,182)"/>
<path d="M0 0 C0.33 0 0.66 0 1 0 C1 8.25 1 16.5 1 25 C0.67 25 0.34 25 0 25 C-0.049 24.073 -0.098 23.146 -0.148 22.191 C-0.223 20.994 -0.298 19.796 -0.375 18.562 C-0.445 17.368 -0.514 16.173 -0.586 14.941 C-0.723 13.971 -0.859 13 -1 12 C-1.66 11.67 -2.32 11.34 -3 11 C-3.66 12.32 -4.32 13.64 -5 15 C-5 13.35 -5 11.7 -5 10 C-9.62 10 -14.24 10 -19 10 C-19 9.67 -19 9.34 -19 9 C-14.05 9 -9.1 9 -4 9 C-3.67 8.34 -3.34 7.68 -3 7 C-2.67 7 -2.34 7 -2 7 C-1.34 4.69 -0.68 2.38 0 0 Z " fill="#101B13" transform="translate(496,112)"/>
<path d="M0 0 C3 1 3 1 4.188 3.188 C5.091 6.315 5.282 8.76 5 12 C4.01 13.485 4.01 13.485 3 15 C0.723 15.398 0.723 15.398 -1.938 15.375 C-3.25 15.387 -3.25 15.387 -4.59 15.398 C-7.393 14.935 -8.291 14.222 -10 12 C-10 11.67 -10 11.34 -10 11 C-5.38 11 -0.76 11 4 11 C3.526 9.556 3.051 8.113 2.562 6.625 C2.296 5.813 2.029 5.001 1.754 4.164 C1.048 1.99 1.048 1.99 0 0 Z M-11 14 C-10.34 14 -9.68 14 -9 14 C-9 14.66 -9 15.32 -9 16 C-9.66 16 -10.32 16 -11 16 C-11 15.34 -11 14.68 -11 14 Z " fill="#37453A" transform="translate(764,189)"/>
<path d="M0 0 C1.32 0.33 2.64 0.66 4 1 C4 3.31 4 5.62 4 8 C3.01 8.495 3.01 8.495 2 9 C1.34 6.03 0.68 3.06 0 0 Z M5 7 C7 7 7 7 9.625 9.5 C10.409 10.325 11.192 11.15 12 12 C11.67 12.99 11.34 13.98 11 15 C8.938 15.688 8.938 15.688 7 16 C5.35 14.02 3.7 12.04 2 10 C2.99 9.67 3.98 9.34 5 9 C5 8.34 5 7.68 5 7 Z " fill="#38463D" transform="translate(613,125)"/>
<path d="M0 0 C0.66 0.33 1.32 0.66 2 1 C0.739 2.342 -0.534 3.674 -1.812 5 C-2.52 5.743 -3.228 6.485 -3.957 7.25 C-6 9 -6 9 -9 9 C-9 8.34 -9 7.68 -9 7 C-9.66 6.67 -10.32 6.34 -11 6 C-9.214 4.97 -7.421 3.951 -5.625 2.938 C-4.627 2.369 -3.63 1.801 -2.602 1.215 C-1.743 0.814 -0.885 0.413 0 0 Z M-10 10 C-9.01 10.495 -9.01 10.495 -8 11 C-8.99 11.495 -8.99 11.495 -10 12 C-10 11.34 -10 10.68 -10 10 Z M-12 12 C-11.01 12.495 -11.01 12.495 -10 13 C-10.99 13.495 -10.99 13.495 -12 14 C-12 13.34 -12 12.68 -12 12 Z M-17 17 C-16.34 17.33 -15.68 17.66 -15 18 C-16.65 19.65 -18.3 21.3 -20 23 C-19 21 -18 19 -17 17 Z " fill="#E7F1E7" transform="translate(308,98)"/>
<path d="M0 0 C3.125 0.375 3.125 0.375 6 1 C6.043 3 6.041 5 6 7 C5 8 5 8 2 8.125 C-1 8 -1 8 -2 7 C-2.188 4.562 -2.188 4.562 -2 2 C-1.34 1.34 -0.68 0.68 0 0 Z " fill="#212E25" transform="translate(710,81)"/>
<path d="M0 0 C11.522 -0.554 11.522 -0.554 17 3 C17 3.99 17 4.98 17 6 C15.958 5.294 15.958 5.294 14.895 4.574 C11.737 2.857 9.231 2.319 5.688 1.812 C4.619 1.654 3.55 1.495 2.449 1.332 C1.641 1.222 0.833 1.113 0 1 C0 0.67 0 0.34 0 0 Z M3 2 C5.31 2.33 7.62 2.66 10 3 C9.67 3.99 9.34 4.98 9 6 C6.03 6 3.06 6 0 6 C0.99 5.01 1.98 4.02 3 3 C3 2.67 3 2.34 3 2 Z M18 6 C18.99 6.495 18.99 6.495 20 7 C19.67 7.99 19.34 8.98 19 10 C18.67 8.68 18.34 7.36 18 6 Z " fill="#19261D" transform="translate(753,182)"/>
<path d="M0 0 C1.212 0.041 1.212 0.041 2.449 0.082 C3.064 0.117 3.679 0.152 4.312 0.188 C3.982 1.838 3.653 3.487 3.312 5.188 C1.332 5.188 -0.648 5.188 -2.688 5.188 C-3.018 5.847 -3.347 6.507 -3.688 7.188 C-6.688 5.188 -6.688 5.188 -7.688 3.188 C-5.268 0.205 -3.789 -0.165 0 0 Z M-9.688 4.188 C-9.028 4.517 -8.367 4.847 -7.688 5.188 C-8.678 5.188 -9.668 5.188 -10.688 5.188 C-10.357 4.858 -10.028 4.528 -9.688 4.188 Z M-12.688 7.188 C-12.357 7.847 -12.028 8.507 -11.688 9.188 C-12.347 8.858 -13.008 8.528 -13.688 8.188 C-13.357 7.858 -13.028 7.528 -12.688 7.188 Z " fill="#3B4B40" transform="translate(630.6875,97.8125)"/>
<path d="M0 0 C0 0.66 0 1.32 0 2 C1.32 2.66 2.64 3.32 4 4 C2.763 3.938 1.525 3.876 0.25 3.812 C-3.556 3.786 -5.046 4.573 -8 7 C-10.25 6.688 -10.25 6.688 -12 6 C-10.92 2.868 -9.99 1.994 -7.125 0.188 C-4.023 -0.991 -2.98 -1.261 0 0 Z " fill="#324138" transform="translate(743,101)"/>
<path d="M0 0 C0.66 0.66 1.32 1.32 2 2 C1.01 1.67 0.02 1.34 -1 1 C-0.67 0.67 -0.34 0.34 0 0 Z M-2 1 C-5 4 -8 7 -11 10 C-11.99 9.01 -12.98 8.02 -14 7 C-12.959 4.256 -12.027 3.021 -9.688 1.188 C-6.576 -0.187 -5.191 -0.003 -2 1 Z " fill="#303F36" transform="translate(481,100)"/>
<path d="M0 0 C0.516 0.763 1.031 1.526 1.562 2.312 C4.558 5.616 6.857 6.486 11 8 C10.01 9.485 10.01 9.485 9 11 C7.68 11 6.36 11 5 11 C5 11.66 5 12.32 5 13 C1.225 11.909 -1.47 11.092 -4 8 C-3.67 7.01 -3.34 6.02 -3 5 C-1.35 6.65 0.3 8.3 2 10 C2.99 9.67 3.98 9.34 5 9 C3.763 8.165 3.763 8.165 2.5 7.312 C0 5 0 5 -0.312 2.25 C-0.209 1.507 -0.106 0.765 0 0 Z M3 8 C3.33 8.66 3.66 9.32 4 10 C3.34 9.67 2.68 9.34 2 9 C2.33 8.67 2.66 8.34 3 8 Z " fill="#1F2C23" transform="translate(579,192)"/>
<path d="M0 0 C3.3 0 6.6 0 10 0 C10 0.33 10 0.66 10 1 C6.7 1.33 3.4 1.66 0 2 C0 1.34 0 0.68 0 0 Z M2 2 C6.047 2.867 9.048 4.048 12 7 C8.37 6.67 4.74 6.34 1 6 C1.33 4.68 1.66 3.36 2 2 Z M12 7 C15.161 8.37 15.993 8.989 18 12 C17.67 12.99 17.34 13.98 17 15 C13.125 9.25 13.125 9.25 12 7 Z " fill="#152018" transform="translate(678,182)"/>
<path d="M0 0 C3 1 3 1 3 1 Z M-0.75 1.25 C0.116 1.621 0.116 1.621 1 2 C1 2.99 1 3.98 1 5 C1.33 5.66 1.66 6.32 2 7 C0.68 8.32 -0.64 9.64 -2 11 C-4.475 10.01 -4.475 10.01 -7 9 C-7 5 -7 5 -5.25 2.688 C-3 1 -3 1 -0.75 1.25 Z M-4 4 C-4.66 5.32 -5.32 6.64 -6 8 C-5.01 8.33 -4.02 8.66 -3 9 C-2.67 7.68 -2.34 6.36 -2 5 C-2.66 4.67 -3.32 4.34 -4 4 Z " fill="#223025" transform="translate(750,183)"/>
<path d="M0 0 C-0.33 1.32 -0.66 2.64 -1 4 C-0.01 4.66 0.98 5.32 2 6 C-1.96 6.66 -5.92 7.32 -10 8 C-9.312 5.125 -9.312 5.125 -8 2 C-5.083 0.355 -3.353 0 0 0 Z " fill="#2C3A31" transform="translate(733,184)"/>
<path d="M0 0 C-0.99 0.66 -1.98 1.32 -3 2 C-2.67 3.32 -2.34 4.64 -2 6 C-5.3 5.67 -8.6 5.34 -12 5 C-4.975 -0.269 -4.975 -0.269 0 0 Z M-14 1 C-12.35 1 -10.7 1 -9 1 C-8.67 1.66 -8.34 2.32 -8 3 C-10.97 2.505 -10.97 2.505 -14 2 C-14 1.67 -14 1.34 -14 1 Z M-16 2 C-15.34 2 -14.68 2 -14 2 C-14 2.66 -14 3.32 -14 4 C-14.66 4 -15.32 4 -16 4 C-16 3.34 -16 2.68 -16 2 Z M-2 2 C0 3 0 3 0 3 Z " fill="#37453C" transform="translate(796,137)"/>
<path d="M0 0 C2.475 0.99 2.475 0.99 5 2 C4.361 2.124 3.721 2.248 3.062 2.375 C2.382 2.581 1.701 2.787 1 3 C0.67 3.66 0.34 4.32 0 5 C0.495 5.371 0.99 5.743 1.5 6.125 C3 8 3 8 3.438 10.938 C2.913 14.611 1.828 15.702 -1 18 C-1.33 17.34 -1.66 16.68 -2 16 C-1.505 15.629 -1.01 15.257 -0.5 14.875 C1.598 12.253 1.217 10.262 1 7 C-1.475 6.01 -1.475 6.01 -4 5 C-2.68 3.35 -1.36 1.7 0 0 Z " fill="#18251B" transform="translate(595,202)"/>
<path d="M0 0 C2 1 2 1 2 1 Z M-8 1 C-6.742 0.959 -5.484 0.917 -4.188 0.875 C-3.48 0.852 -2.772 0.829 -2.043 0.805 C0 1 0 1 3 3 C2.67 3.99 2.34 4.98 2 6 C0.518 5.746 -0.961 5.471 -2.438 5.188 C-3.261 5.037 -4.085 4.886 -4.934 4.73 C-5.616 4.489 -6.297 4.248 -7 4 C-7.33 3.01 -7.66 2.02 -8 1 Z M3 3 C4.98 3.99 4.98 3.99 7 5 C6.01 5 5.02 5 4 5 C3.67 4.34 3.34 3.68 3 3 Z " fill="#36443B" transform="translate(486,182)"/>
<path d="M0 0 C1 2 1 2 0.25 5 C-1 8 -1 8 -4 10 C-6.188 9.625 -6.188 9.625 -8 9 C-5.685 5.279 -3.714 2.388 0 0 Z M-9 6 C-8.34 6 -7.68 6 -7 6 C-7 6.66 -7 7.32 -7 8 C-7.66 8 -8.32 8 -9 8 C-9 7.34 -9 6.68 -9 6 Z " fill="#1E2B22" transform="translate(489,215)"/>
<path d="M0 0 C2 1 2 1 4 4 C6.05 5.192 6.05 5.192 8 6 C7.01 7.485 7.01 7.485 6 9 C3.506 7.796 1.319 6.546 -1 5 C-0.67 3.35 -0.34 1.7 0 0 Z M2 0 C2.66 0 3.32 0 4 0 C3.67 1.32 3.34 2.64 3 4 C2.67 2.68 2.34 1.36 2 0 Z M8 7 C8.66 7.66 9.32 8.32 10 9 C9.34 9 8.68 9 8 9 C8 8.34 8 7.68 8 7 Z M6 9 C8 10 8 10 8 10 Z " fill="#35443A" transform="translate(575,193)"/>
<path d="M0 0 C3.65 1.734 5.556 3.193 7 7 C5.02 7.99 5.02 7.99 3 9 C0.748 6.312 -0.882 4.354 -2 1 C-1.34 0.67 -0.68 0.34 0 0 Z " fill="#313F36" transform="translate(688,101)"/>
<path d="M0 0 C2 1 2 1 2 1 Z M-7 2 C-4.525 2.495 -4.525 2.495 -2 3 C-2.33 3.99 -2.66 4.98 -3 6 C-4.32 4.68 -5.64 3.36 -7 2 Z M0 2 C2 3 2 3 2 3 Z M-8 4 C-6 5 -6 5 -6 5 Z M-3 6 C-2.67 6.99 -2.34 7.98 -2 9 C-4.64 8.67 -7.28 8.34 -10 8 C-10 7.67 -10 7.34 -10 7 C-5.25 6 -5.25 6 -3 6 Z " fill="#39473D" transform="translate(597,217)"/>
<path d="M0 0 C2.97 0 5.94 0 9 0 C6.238 2.762 3.793 2.579 0 3 C0 2.01 0 1.02 0 0 Z M-3 3 C-2.01 3.33 -1.02 3.66 0 4 C-1.32 4.33 -2.64 4.66 -4 5 C-3.67 4.34 -3.34 3.68 -3 3 Z M0 4 C2.31 4 4.62 4 7 4 C7 4.33 7 4.66 7 5 C4.69 5.33 2.38 5.66 0 6 C0 5.34 0 4.68 0 4 Z M-6 9 C-4 10 -4 10 -4 10 Z " fill="#37463C" transform="translate(782,98)"/>
<path d="M0 0 C0.99 0.33 1.98 0.66 3 1 C3.33 1.99 3.66 2.98 4 4 C5.65 3.67 7.3 3.34 9 3 C9 3.66 9 4.32 9 5 C9.66 5.33 10.32 5.66 11 6 C5.06 6.495 5.06 6.495 -1 7 C-1 1 -1 1 0 0 Z " fill="#344239" transform="translate(834,218)"/>
<path d="M0 0 C1.136 3.409 0.867 4.003 -0.438 7.188 C-0.725 7.903 -1.012 8.618 -1.309 9.355 C-1.537 9.898 -1.765 10.441 -2 11 C-3.65 11 -5.3 11 -7 11 C-6.408 9.682 -5.801 8.371 -5.188 7.062 C-4.851 6.332 -4.515 5.601 -4.168 4.848 C-3 3 -3 3 0 2 C0 1.34 0 0.68 0 0 Z M-5 2 C-3 3 -3 3 -3 3 Z " fill="#35433A" transform="translate(496,109)"/>
<path d="M0 0 C0.99 0.495 0.99 0.495 2 1 C1.01 1.495 1.01 1.495 0 2 C0 1.34 0 0.68 0 0 Z M6 0 C8 1 8 1 8 1 Z M-2 1 C-1.34 1.33 -0.68 1.66 0 2 C0 2.99 0 3.98 0 5 C-0.66 4.67 -1.32 4.34 -2 4 C-2 3.01 -2 2.02 -2 1 Z M2 1 C4.97 1.495 4.97 1.495 8 2 C7.67 2.99 7.34 3.98 7 5 C4.03 4.505 4.03 4.505 1 4 C1.33 3.01 1.66 2.02 2 1 Z M7 5 C9 6 9 6 9 6 Z M10 5 C10.33 5.66 10.66 6.32 11 7 C10.34 6.67 9.68 6.34 9 6 C9.33 5.67 9.66 5.34 10 5 Z " fill="#37463C" transform="translate(784,117)"/>
<path d="M0 0 C3.63 0.33 7.26 0.66 11 1 C11 1.33 11 1.66 11 2 C13.31 2.33 15.62 2.66 18 3 C18 3.33 18 3.66 18 4 C15.562 4.081 13.126 4.14 10.688 4.188 C9.652 4.225 9.652 4.225 8.596 4.264 C3.462 4.338 3.462 4.338 1.02 2.551 C0 1 0 1 0 0 Z " fill="#37463C" transform="translate(737,117)"/>
<path d="M0 0 C1.98 0 3.96 0 6 0 C6.33 1.98 6.66 3.96 7 6 C4.36 6 1.72 6 -1 6 C-1.33 5.34 -1.66 4.68 -2 4 C-1.67 3.34 -1.34 2.68 -1 2 C0.98 2.495 0.98 2.495 3 3 C3 2.34 3 1.68 3 1 C2.01 0.67 1.02 0.34 0 0 Z M7 2 C9 3 9 3 9 3 Z " fill="#1B2820" transform="translate(585,220)"/>
<path d="M0 0 C2.938 1.312 2.938 1.312 6 3 C6.33 3.99 6.66 4.98 7 6 C6.34 6.66 5.68 7.32 5 8 C4.01 8 3.02 8 2 8 C0.25 5.688 0.25 5.688 -1 3 C-0.67 2.01 -0.34 1.02 0 0 Z " fill="#2E3C33" transform="translate(489,186)"/>
<path d="M0 0 C0.33 0 0.66 0 1 0 C1.125 2.375 1.125 2.375 1 5 C-1 7 -1 7 -4.625 7.125 C-5.739 7.084 -6.852 7.043 -8 7 C-8 6.67 -8 6.34 -8 6 C-10.97 5.505 -10.97 5.505 -14 5 C-14 4.67 -14 4.34 -14 4 C-9.38 4 -4.76 4 0 4 C0 2.68 0 1.36 0 0 Z " fill="#18241C" transform="translate(755,113)"/>
<path d="M0 0 C0.99 1.32 1.98 2.64 3 4 C3.887 3.34 4.774 2.68 5.688 2 C8.981 0.011 10.283 -0.437 14 0 C11.87 1.42 9.754 2.807 7.562 4.125 C6.986 4.478 6.41 4.831 5.816 5.195 C4 6 4 6 0 6 C0 4.68 0 3.36 0 2 C-0.66 1.67 -1.32 1.34 -2 1 C-1.34 0.67 -0.68 0.34 0 0 Z " fill="#1B281D" transform="translate(515,99)"/>
<path d="M0 0 C1.875 0.25 1.875 0.25 4 1 C5.25 3.062 5.25 3.062 6 5 C5.01 5 4.02 5 3 5 C2.67 5.66 2.34 6.32 2 7 C0.438 5.188 0.438 5.188 -1 3 C-0.67 2.01 -0.34 1.02 0 0 Z " fill="#334138" transform="translate(765,185)"/>
<path d="M0 0 C6.055 -0.195 6.055 -0.195 8 0 C8.66 0.66 9.32 1.32 10 2 C6.018 3.054 3.018 2.841 -1 2 C-0.67 1.34 -0.34 0.68 0 0 Z M2 3 C5 4 5 4 7 6 C5.35 6 3.7 6 2 6 C2 5.01 2 4.02 2 3 Z " fill="#233027" transform="translate(740,98)"/>
<path d="M0 0 C0.33 1.32 0.66 2.64 1 4 C0.34 3.01 -0.32 2.02 -1 1 C-0.67 0.67 -0.34 0.34 0 0 Z M-3 2 C-2.34 2 -1.68 2 -1 2 C-1.33 2.99 -1.66 3.98 -2 5 C-2.66 5 -3.32 5 -4 5 C-3.67 4.01 -3.34 3.02 -3 2 Z M2 3 C2.66 3.66 3.32 4.32 4 5 C2.02 5.66 0.04 6.32 -2 7 C-2 6.34 -2 5.68 -2 5 C-0.68 4.34 0.64 3.68 2 3 Z M4 3 C4.99 3.33 5.98 3.66 7 4 C6.01 4 5.02 4 4 4 C4 3.67 4 3.34 4 3 Z " fill="#2B3930" transform="translate(676,136)"/>
<path d="M0 0 C2.64 0.33 5.28 0.66 8 1 C7 4 7 4 4.938 5.188 C4.298 5.456 3.659 5.724 3 6 C2.01 5.34 1.02 4.68 0 4 C0.66 3.01 1.32 2.02 2 1 C1.34 0.67 0.68 0.34 0 0 Z " fill="#334238" transform="translate(624,117)"/>
<path d="M0 0 C0.99 0.99 1.98 1.98 3 3 C2.34 4.32 1.68 5.64 1 7 C0.34 5.02 -0.32 3.04 -1 1 C-0.67 0.67 -0.34 0.34 0 0 Z M-5 2 C-4.34 2 -3.68 2 -3 2 C-3.33 2.66 -3.66 3.32 -4 4 C-4.33 3.34 -4.66 2.68 -5 2 Z M-9 3 C-8.01 3.33 -7.02 3.66 -6 4 C-6.99 4.33 -7.98 4.66 -9 5 C-9 4.34 -9 3.68 -9 3 Z M-6 4 C-4 5 -4 5 -4 5 Z M-8 5 C-6 6 -6 6 -6 6 Z " fill="#39473E" transform="translate(900,218)"/>
<path d="M0 0 C0.33 0.66 0.66 1.32 1 2 C0.34 1.67 -0.32 1.34 -1 1 C-0.67 0.67 -0.34 0.34 0 0 Z M2 3 C2.66 3.33 3.32 3.66 4 4 C3.67 5.32 3.34 6.64 3 8 C2.34 7.67 1.68 7.34 1 7 C1.33 5.68 1.66 4.36 2 3 Z M5 5 C5.99 5.495 5.99 5.495 7 6 C6.01 6.495 6.01 6.495 5 7 C5 6.34 5 5.68 5 5 Z " fill="#2E3D34" transform="translate(645,187)"/>
<path d="M0 0 C2 1 2 1 2 1 Z M2 1 C2.66 1 3.32 1 4 1 C3.67 1.66 3.34 2.32 3 3 C2.67 2.34 2.34 1.68 2 1 Z M6 1 C7.32 1.66 8.64 2.32 10 3 C9.67 4.32 9.34 5.64 9 7 C7.68 6.34 6.36 5.68 5 5 C5.33 3.68 5.66 2.36 6 1 Z " fill="#324037" transform="translate(635,103)"/>
<path d="M0 0 C0.66 0.66 1.32 1.32 2 2 C1.01 2 0.02 2 -1 2 C-0.67 1.34 -0.34 0.68 0 0 Z " fill="#7BA97E" transform="translate(298,110)"/>
<path d="M0 0 C0.99 0.33 1.98 0.66 3 1 C1.35 4.3 -0.3 7.6 -2 11 C-3.285 5.861 -2.222 4.622 0 0 Z " fill="#E2EDE2" transform="translate(258,159)"/>
<path d="M0 0 C3 1 3 1 3 1 Z M2 2 C2.33 2.66 2.66 3.32 3 4 C2.34 3.67 1.68 3.34 1 3 C1.33 2.67 1.66 2.34 2 2 Z M-2 3 C-1 7 -1 7 -1 7 Z M1 5 C1.66 5.33 2.32 5.66 3 6 C2.67 7.32 2.34 8.64 2 10 C1.34 10 0.68 10 0 10 C-0.33 9.01 -0.66 8.02 -1 7 C-0.34 6.34 0.32 5.68 1 5 Z " fill="#39473D" transform="translate(515,106)"/>
<path d="M0 0 C1.65 0 3.3 0 5 0 C5 1.98 5 3.96 5 6 C3.68 6.33 2.36 6.66 1 7 C0.67 4.69 0.34 2.38 0 0 Z " fill="#323F36" transform="translate(510,99)"/>
<path d="M0 0 C2 2 2 2 2.188 5 C2 8 2 8 1 10 C0.34 10 -0.32 10 -1 10 C-1.125 3.375 -1.125 3.375 0 0 Z " fill="#303F36" transform="translate(427,208)"/>
<path d="M0 0 C0.99 0.33 1.98 0.66 3 1 C1.35 2.65 -0.3 4.3 -2 6 C-2.66 5.67 -3.32 5.34 -4 5 C-2.25 1.125 -2.25 1.125 0 0 Z M4 0 C4.66 0.99 5.32 1.98 6 3 C5.01 2.67 4.02 2.34 3 2 C3.33 1.34 3.66 0.68 4 0 Z " fill="#303F36" transform="translate(472,120)"/>
<path d="M0 0 C1.32 1.32 2.64 2.64 4 4 C2.02 4.99 2.02 4.99 0 6 C-0.66 5.34 -1.32 4.68 -2 4 C-2 3.01 -2 2.02 -2 1 C-1.34 0.67 -0.68 0.34 0 0 Z " fill="#324138" transform="translate(490,102)"/>
<path d="M0 0 C2.475 0.495 2.475 0.495 5 1 C4.67 1.66 4.34 2.32 4 3 C2.68 2.67 1.36 2.34 0 2 C0 1.34 0 0.68 0 0 Z M6 1 C6.66 1.66 7.32 2.32 8 3 C7.01 3 6.02 3 5 3 C5.33 2.34 5.66 1.68 6 1 Z " fill="#2E3D34" transform="translate(594,205)"/>
<path d="M0 0 C2.475 0.99 2.475 0.99 5 2 C4.402 2.124 3.804 2.248 3.188 2.375 C0.738 2.955 0.738 2.955 -2 5 C-2 2 -2 2 0 0 Z " fill="#1D2A21" transform="translate(595,202)"/>
<path d="M0 0 C1.32 0.33 2.64 0.66 4 1 C4 1.66 4 2.32 4 3 C5.32 3.66 6.64 4.32 8 5 C6.02 5 4.04 5 2 5 C0 1.125 0 1.125 0 0 Z M-2 1 C0 2 0 2 0 2 Z " fill="#445649" transform="translate(739,100)"/>
<path d="M0 0 C3.63 0 7.26 0 11 0 C10.01 0.33 9.02 0.66 8 1 C7.67 1.99 7.34 2.98 7 4 C4.69 3.01 2.38 2.02 0 1 C0 0.67 0 0.34 0 0 Z " fill="#3E4D42" transform="translate(674,98)"/>
<path d="M0 0 C0.99 0.495 0.99 0.495 2 1 C1.67 1.66 1.34 2.32 1 3 C0.67 2.01 0.34 1.02 0 0 Z M-1 3 C-0.34 3 0.32 3 1 3 C0.34 4.65 -0.32 6.3 -1 8 C-1.99 8 -2.98 8 -4 8 C-2.625 5.5 -2.625 5.5 -1 3 Z " fill="#E3EEE3" transform="translate(289,256)"/>
<path d="M0 0 C0.99 0.33 1.98 0.66 3 1 C1.515 1.99 1.515 1.99 0 3 C0 2.01 0 1.02 0 0 Z M-4 2 C-2.02 2.495 -2.02 2.495 0 3 C-1.98 3.99 -1.98 3.99 -4 5 C-4 4.01 -4 3.02 -4 2 Z " fill="#2A382F" transform="translate(688,182)"/>
<path d="M0 0 C-0.33 0.99 -0.66 1.98 -1 3 C-3.062 3.688 -3.062 3.688 -5 4 C-5.33 2.68 -5.66 1.36 -6 0 C-3.509 -1.245 -2.589 -0.777 0 0 Z " fill="#2D3C33" transform="translate(625,137)"/>
<path d="M0 0 C2.5 0.312 2.5 0.312 5 1 C5.33 1.66 5.66 2.32 6 3 C4.188 3.688 4.188 3.688 2 4 C0.25 2.562 0.25 2.562 -1 1 C-0.67 0.67 -0.34 0.34 0 0 Z " fill="#2E3D34" transform="translate(793,103)"/>
<path d="M0 0 C1 3 1 3 -0.125 5.625 C-2 8 -2 8 -4.688 8.812 C-5.451 8.874 -6.214 8.936 -7 9 C-6.578 8.518 -6.157 8.036 -5.723 7.539 C-5.175 6.907 -4.627 6.276 -4.062 5.625 C-3.517 4.999 -2.972 4.372 -2.41 3.727 C-0.93 2.044 -0.93 2.044 0 0 Z " fill="#18231B" transform="translate(490,128)"/>
<path d="M0 0 C0.66 0 1.32 0 2 0 C1.67 1.65 1.34 3.3 1 5 C-0.65 5 -2.3 5 -4 5 C-3.34 4.01 -2.68 3.02 -2 2 C-1.34 2 -0.68 2 0 2 C0 1.34 0 0.68 0 0 Z " fill="#313F36" transform="translate(493,115)"/>
<path d="M0 0 C0.66 0.33 1.32 0.66 2 1 C2 1.66 2 2.32 2 3 C1.34 3 0.68 3 0 3 C-0.289 3.639 -0.577 4.279 -0.875 4.938 C-2 7 -2 7 -4 8 C-2.875 5.028 -1.777 2.666 0 0 Z " fill="#E1ECE1" transform="translate(330,113)"/>
<path d="M0 0 C0.66 0.66 1.32 1.32 2 2 C1.01 2.33 0.02 2.66 -1 3 C-0.67 2.01 -0.34 1.02 0 0 Z M-4 2 C-3.01 2.33 -2.02 2.66 -1 3 C-1.33 3.66 -1.66 4.32 -2 5 C-2.99 5.33 -3.98 5.66 -5 6 C-4.67 4.68 -4.34 3.36 -4 2 Z " fill="#2E3D34" transform="translate(600,217)"/>
<path d="M0 0 C0.99 0 1.98 0 3 0 C3 0.66 3 1.32 3 2 C3.99 2.33 4.98 2.66 6 3 C6 3.99 6 4.98 6 6 C3.378 4.951 2.206 4.351 0.75 1.875 C0.503 1.256 0.255 0.637 0 0 Z " fill="#334337" transform="translate(674,183)"/>
<path d="M0 0 C1.485 0.99 1.485 0.99 3 2 C2.01 2.99 1.02 3.98 0 5 C-0.562 3.062 -0.562 3.062 -1 1 C-0.67 0.67 -0.34 0.34 0 0 Z M4 1 C4 4 4 4 4 4 Z " fill="#36453A" transform="translate(641,109)"/>
<path d="M0 0 C1.98 0 3.96 0 6 0 C6 0.66 6 1.32 6 2 C5.072 2.186 5.072 2.186 4.125 2.375 C1.809 2.872 1.809 2.872 0 5 C0 3.35 0 1.7 0 0 Z " fill="#334138" transform="translate(425,82)"/>
<path d="M0 0 C1.32 0 2.64 0 4 0 C4 0.99 4 1.98 4 3 C2.02 3 0.04 3 -2 3 C-1.34 2.67 -0.68 2.34 0 2 C0 1.34 0 0.68 0 0 Z " fill="#303F36" transform="translate(556,192)"/>
<path d="M0 0 C1.65 0 3.3 0 5 0 C5 0.99 5 1.98 5 3 C3.35 3 1.7 3 0 3 C0 2.01 0 1.02 0 0 Z " fill="#2A372E" transform="translate(641,138)"/>
<path d="M0 0 C0.66 0 1.32 0 2 0 C2 1.32 2 2.64 2 4 C0.35 4 -1.3 4 -3 4 C-2.34 3.67 -1.68 3.34 -1 3 C-0.67 2.01 -0.34 1.02 0 0 Z " fill="#35443B" transform="translate(494,220)"/>
<path d="M0 0 C0.99 0 1.98 0 3 0 C2.625 2.438 2.625 2.438 2 5 C1.01 5.495 1.01 5.495 0 6 C0 4.02 0 2.04 0 0 Z " fill="#3C4B40" transform="translate(905,191)"/>
<path d="M0 0 C0.66 1.32 1.32 2.64 2 4 C0.68 3.34 -0.64 2.68 -2 2 C-1.34 1.34 -0.68 0.68 0 0 Z M-4 3 C-2 4 -2 4 -2 4 Z " fill="#344339" transform="translate(753,134)"/>
<path d="M0 0 C0.66 1.32 1.32 2.64 2 4 C1.01 4.99 0.02 5.98 -1 7 C-0.67 4.69 -0.34 2.38 0 0 Z " fill="#DEE9DE" transform="translate(255,104)"/>
<path d="M0 0 C0.99 0.33 1.98 0.66 3 1 C2.67 1.66 2.34 2.32 2 3 C0.02 3 -1.96 3 -4 3 C-2.188 1.438 -2.188 1.438 0 0 Z " fill="#344239" transform="translate(632,100)"/>
<path d="M0 0 C0 3 0 3 0 3 Z M-3 2 C-2.34 2 -1.68 2 -1 2 C-1.33 2.99 -1.66 3.98 -2 5 C-2.66 5 -3.32 5 -4 5 C-3.67 4.01 -3.34 3.02 -3 2 Z " fill="#2E3C33" transform="translate(676,136)"/>
<path d="M0 0 C0.66 0.33 1.32 0.66 2 1 C2 1.66 2 2.32 2 3 C1.01 3.33 0.02 3.66 -1 4 C-1 1 -1 1 0 0 Z M-4 1 C-2 2 -2 2 -2 2 Z " fill="#36463B" transform="translate(686,99)"/>
<path d="M0 0 C0.66 0.33 1.32 0.66 2 1 C1.01 1 0.02 1 -1 1 C-0.67 0.67 -0.34 0.34 0 0 Z M2 1 C2.66 1.66 3.32 2.32 4 3 C3.01 3 2.02 3 1 3 C1.33 2.34 1.66 1.68 2 1 Z " fill="#36433A" transform="translate(618,121)"/>
<path d="M0 0 C0 0.99 0 1.98 0 3 C-0.99 3 -1.98 3 -3 3 C-2.01 2.01 -1.02 1.02 0 0 Z " fill="#E9F4E9" transform="translate(288,261)"/>
<path d="M0 0 C0.99 0.33 1.98 0.66 3 1 C2.67 2.65 2.34 4.3 2 6 C0 2.25 0 2.25 0 0 Z " fill="#536B56" transform="translate(900,219)"/>
<path d="M0 0 C0.99 0 1.98 0 3 0 C3.33 0.99 3.66 1.98 4 3 C2.35 2.67 0.7 2.34 -1 2 C-0.67 1.34 -0.34 0.68 0 0 Z " fill="#344338" transform="translate(750,186)"/>
<path d="M0 0 C0.99 0.33 1.98 0.66 3 1 C2.34 1.66 1.68 2.32 1 3 C0.34 2.34 -0.32 1.68 -1 1 C-0.67 0.67 -0.34 0.34 0 0 Z " fill="#2E3D34" transform="translate(689,186)"/>
<path d="M0 0 C0.99 0.33 1.98 0.66 3 1 C2.67 1.99 2.34 2.98 2 4 C1.34 3.67 0.68 3.34 0 3 C0 2.01 0 1.02 0 0 Z " fill="#2C3A31" transform="translate(616,130)"/>
<path d="M0 0 C0.99 0 1.98 0 3 0 C2.34 1.32 1.68 2.64 1 4 C0.67 2.68 0.34 1.36 0 0 Z " fill="#314037" transform="translate(692,106)"/>
<path d="M0 0 C0.99 0.33 1.98 0.66 3 1 C2.01 1.99 1.02 2.98 0 4 C0 2.68 0 1.36 0 0 Z " fill="#303F36" transform="translate(511,102)"/>
</svg>